<?xml version="1.0" standalone="no"?>
<!DOCTYPE svg PUBLIC "-//W3C//DTD SVG 20010904//EN"
 "http://www.w3.org/TR/2001/REC-SVG-20010904/DTD/svg10.dtd">
<svg version="1.0" xmlns="http://www.w3.org/2000/svg"
 width="547.000000pt" height="546.000000pt" viewBox="0 0 547.000000 546.000000"
 preserveAspectRatio="xMidYMid meet">

<g transform="translate(0.000000,546.000000) scale(0.100000,-0.100000)"
fill="#000000" stroke="none">
<path d="M2624 5121 c-141 -23 -261 -86 -355 -189 -53 -56 -119 -168 -119
-199 0 -10 -36 -13 -178 -13 -153 0 -187 -3 -237 -20 -114 -39 -217 -144 -251
-255 -11 -39 -14 -146 -14 -578 l0 -530 24 -42 24 -41 -28 -469 c-16 -259 -29
-471 -30 -472 0 -2 -92 -3 -204 -3 -195 0 -204 -1 -237 -23 -39 -26 -63 -85
-53 -130 3 -16 19 -43 34 -61 l29 -32 3 -265 3 -264 34 -63 c39 -72 98 -125
166 -151 l47 -18 -35 -20 c-40 -24 -80 -74 -96 -122 -15 -47 -14 -173 3 -218
8 -21 16 -66 19 -99 6 -77 30 -127 75 -162 l35 -27 1447 -3 1446 -2 45 29 c60
37 89 95 89 177 1 36 6 67 15 78 23 30 20 199 -4 251 -19 43 -68 90 -110 107
l-26 10 38 14 c57 20 124 73 158 123 53 80 59 121 59 382 l0 238 29 20 c62 44
67 139 12 195 l-31 31 -235 3 -235 3 -1 27 c0 15 -12 228 -27 473 l-27 447 23
43 23 43 -3 541 -3 540 -33 67 c-42 86 -109 153 -192 192 -64 31 -67 31 -255
34 l-190 4 -39 81 c-67 140 -204 254 -364 301 -65 19 -200 27 -268 17z m231
-76 c143 -36 275 -137 334 -253 17 -33 27 -62 24 -66 -4 -3 -26 -6 -49 -6 -41
0 -45 3 -65 41 -30 60 -105 131 -169 161 -215 101 -468 37 -587 -149 -32 -51
-35 -53 -78 -53 -25 0 -45 5 -45 10 0 30 60 122 114 175 66 66 159 119 249
141 73 17 201 17 272 -1z m36 -178 c53 -26 149 -114 149 -137 0 -7 -105 -10
-320 -10 -220 0 -320 3 -320 11 0 19 50 76 91 105 72 49 132 65 244 62 85 -3
109 -7 156 -31z m-921 -637 l0 -430 -60 0 -60 0 0 430 0 430 60 0 60 0 0 -430z
m1420 0 l0 -430 -55 0 c-97 0 -121 -45 -113 -211 5 -113 23 -137 111 -146 l57
-6 0 -83 0 -84 -680 0 -680 0 0 84 0 83 57 6 c88 9 106 33 111 146 8 166 -16
211 -113 211 l-55 0 0 430 0 430 680 0 680 0 0 -430z m180 0 l0 -430 -60 0
-60 0 0 430 0 430 60 0 60 0 0 -430z m-1782 -11 l-3 -414 -56 -5 c-66 -6 -85
-19 -99 -69 -13 -46 -13 -165 0 -212 14 -51 39 -69 104 -76 l56 -6 0 -83 0
-84 -84 0 c-70 0 -88 4 -117 23 -61 41 -59 23 -57 592 l3 520 27 57 c14 31 45
74 68 96 46 45 139 97 152 84 5 -5 7 -195 6 -423z m1916 411 c68 -29 139 -100
172 -173 l29 -62 3 -500 c3 -555 3 -562 -57 -602 -29 -20 -47 -23 -127 -23
l-94 0 0 84 0 83 57 6 c85 9 105 33 111 136 10 167 -12 213 -104 221 l-59 5
-3 423 c-3 471 -9 437 72 402z m-1576 -999 c2 -60 -1 -98 -9 -107 -15 -19
-398 -21 -417 -2 -13 13 -17 163 -6 192 6 14 31 16 218 14 l211 -3 3 -94z
m1600 -2 c2 -73 -1 -99 -11 -108 -10 -8 -72 -11 -213 -9 l-199 3 -3 108 -3
107 213 -2 213 -3 3 -96z m-1760 -456 l2 -273 -60 0 -60 0 0 268 c0 148 3 272
7 276 4 4 30 6 58 4 l50 -3 3 -272z m1600 0 l2 -273 -60 0 -60 0 0 268 c0 148
3 272 7 276 4 4 30 6 58 4 l50 -3 3 -272z m-1789 21 c3 -2 7 -77 9 -165 6
-199 6 -199 119 -199 65 0 80 3 100 22 22 21 23 27 23 185 l0 163 680 0 680 0
0 -165 c0 -205 0 -205 118 -205 115 0 122 8 122 153 0 62 3 135 6 164 l7 51
106 4 c58 2 107 3 108 3 5 -2 103 -1710 103 -1781 0 -91 -13 -132 -56 -183
-46 -53 -114 -88 -201 -101 -45 -7 -389 -10 -1028 -8 -1087 3 -1019 -2 -1115
85 -65 59 -84 107 -82 213 1 82 85 1532 98 1695 l6 81 97 -4 c53 -2 98 -6 100
-8z m-323 -981 c-3 -21 -6 -50 -6 -65 l0 -28 -188 0 c-214 0 -232 5 -232 65 0
60 18 65 239 65 l194 0 -7 -37z m2983 11 c26 -33 26 -45 0 -78 l-20 -26 -215
0 -214 0 0 65 0 65 214 0 215 0 20 -26z m-2999 -221 c0 -27 -7 -149 -15 -273
-8 -124 -15 -258 -15 -299 l0 -74 -63 5 c-76 6 -131 33 -181 88 -62 69 -69 95
-74 283 -2 92 -1 201 3 242 l7 75 169 0 169 0 0 -47z m2930 -189 c0 -153 -4
-251 -12 -276 -15 -50 -79 -123 -132 -150 -43 -22 -186 -39 -186 -22 0 5 -9
151 -20 324 -11 173 -20 325 -20 338 l0 22 185 0 185 0 0 -236z m-2900 -615
c40 -50 107 -94 177 -116 l53 -17 0 -69 0 -68 -224 3 c-271 4 -266 1 -266 112
0 133 55 196 171 196 53 0 57 -2 89 -41z m2717 22 c59 -27 77 -60 83 -154 3
-43 2 -87 -2 -97 -12 -32 -73 -40 -310 -40 l-228 0 0 24 c0 13 3 44 6 68 6 43
9 46 48 58 74 22 133 58 177 109 l44 50 70 0 c48 0 83 -5 112 -18z m-2302
-331 l0 -175 -57 -3 -58 -3 0 181 0 181 58 -3 57 -3 0 -175z m1775 0 l0 -180
-55 0 -55 0 0 180 0 180 55 0 55 0 0 -180z m-180 105 l0 -65 -765 0 c-739 0
-765 1 -765 19 0 10 3 39 6 65 l7 46 758 0 759 0 0 -65z m756 -179 c-5 -33
-15 -52 -37 -71 l-31 -25 -219 0 -219 0 0 28 c0 15 3 44 6 65 l7 37 206 1
c113 0 224 4 246 8 22 4 42 6 44 5 2 -2 0 -23 -3 -48z m-2723 34 l187 0 0 -65
0 -65 -196 0 -196 0 -29 29 c-23 23 -29 38 -29 72 l0 42 38 -7 c20 -3 121 -6
225 -6z m1967 -65 l0 -65 -765 0 c-739 0 -765 1 -765 19 0 10 3 39 6 65 l7 46
758 0 759 0 0 -65z"/>
<path d="M2044 2631 c-18 -11 -45 -36 -60 -57 -29 -37 -29 -38 -32 -204 -3
-141 -1 -168 12 -179 14 -12 16 -48 16 -258 0 -285 4 -303 76 -335 41 -18 73
-18 678 -16 624 3 635 3 663 24 59 43 63 65 63 327 0 200 2 242 16 262 13 20
15 50 12 177 -4 172 -11 197 -75 245 l-36 28 -651 3 c-627 2 -652 1 -682 -17z
m1316 -56 c51 -26 60 -59 60 -210 l0 -135 -200 0 -200 0 0 50 c0 41 -5 56 -29
82 l-29 33 -227 0 -227 0 -29 -33 c-24 -27 -29 -41 -29 -82 l0 -50 -217 2
-218 3 -3 116 c-3 139 9 184 57 216 l34 23 614 0 c529 0 618 -2 643 -15z
m-426 -251 c24 -9 24 -209 0 -218 -20 -8 -378 -8 -398 0 -13 5 -16 24 -16 109
0 73 4 105 13 108 18 8 382 8 401 1z m-484 -190 c0 -26 8 -43 29 -65 l29 -29
227 0 227 0 29 29 c21 22 29 39 29 65 l0 36 185 0 185 0 0 -242 c0 -211 -2
-244 -17 -260 -15 -17 -49 -18 -651 -18 -577 0 -637 2 -654 17 -16 15 -18 36
-18 260 l0 243 200 0 200 0 0 -36z"/>
<path d="M1311 1217 c-52 -18 -75 -57 -81 -138 l-5 -69 232 0 233 0 0 23 c0
19 -9 26 -53 40 -70 22 -137 66 -177 116 -30 36 -38 41 -74 40 -23 0 -56 -5
-75 -12z"/>
<path d="M3981 1189 c-42 -51 -108 -94 -178 -116 -44 -14 -53 -21 -53 -40 l0
-23 255 0 255 0 0 50 c0 112 -47 159 -168 167 l-77 4 -34 -42z"/>
<path d="M1970 1030 c0 -20 7 -20 750 -20 743 0 750 0 750 20 0 20 -7 20 -750
20 -743 0 -750 0 -750 -20z"/>
<path d="M3978 843 c-220 -3 -228 -4 -228 -23 0 -19 7 -20 234 -20 204 0 235
2 240 16 9 24 7 34 -6 32 -7 -2 -115 -4 -240 -5z"/>
<path d="M1260 826 l0 -26 215 0 c208 0 215 1 215 20 0 19 -7 20 -199 20 -110
0 -206 3 -215 6 -12 5 -16 0 -16 -20z"/>
<path d="M1970 820 c0 -20 7 -20 750 -20 743 0 750 0 750 20 0 20 -7 20 -750
20 -743 0 -750 0 -750 -20z"/>
</g>
</svg>
