<svg id="svg" version="1.1" xmlns="http://www.w3.org/2000/svg" xmlns:xlink="http://www.w3.org/1999/xlink" width="400" height="399.26873857404024" viewBox="0, 0, 400,399.26873857404024"><g id="svgg"><path id="path0" d="M194.605 24.628 C 176.265 27.254,162.273 37.579,157.853 51.748 C 157.023 54.410,157.371 54.346,143.872 54.346 C 132.829 54.346,131.371 54.424,128.732 55.155 C 119.330 57.760,111.977 64.781,108.585 74.394 L 107.692 76.923 107.572 115.485 C 107.443 157.210,107.362 155.581,109.738 159.111 L 111.170 161.239 110.709 169.031 C 110.456 173.317,110.075 179.610,109.864 183.017 C 109.652 186.424,109.306 192.268,109.094 196.004 C 108.883 199.740,108.529 205.764,108.309 209.391 C 108.088 213.017,107.718 219.113,107.487 222.937 C 107.255 226.761,106.971 230.043,106.856 230.230 C 106.741 230.417,100.181 230.569,92.280 230.569 C 78.526 230.569,77.837 230.605,76.131 231.407 C 69.803 234.382,68.849 242.138,74.185 247.232 L 75.524 248.511 75.524 266.356 C 75.524 286.179,75.573 286.648,78.184 291.833 C 80.716 296.859,87.168 302.312,92.166 303.649 C 93.838 304.096,93.725 304.759,91.832 305.616 C 88.117 307.298,85.000 311.580,83.917 316.489 C 83.017 320.574,83.513 328.714,84.815 331.223 C 85.719 332.965,85.914 333.856,85.914 336.246 C 85.914 343.541,88.356 348.296,93.433 350.892 L 95.305 351.848 199.677 351.951 L 304.050 352.054 306.251 351.230 C 311.770 349.166,314.918 344.267,315.180 337.339 C 315.314 333.788,315.505 332.754,316.312 331.215 C 317.638 328.684,317.777 317.625,316.526 314.201 C 315.212 310.608,312.261 307.404,308.513 305.505 C 306.633 304.553,306.147 303.696,307.487 303.696 C 310.748 303.696,318.762 297.192,321.472 292.345 C 324.359 287.183,324.476 286.188,324.476 266.693 C 324.476 249.465,324.543 248.152,325.429 248.152 C 326.231 248.152,328.958 245.233,329.723 243.556 C 331.739 239.138,329.455 233.270,324.931 231.242 C 324.200 230.914,318.846 230.708,307.493 230.569 L 291.109 230.370 290.826 226.174 C 290.469 220.865,288.613 190.611,288.093 181.618 C 286.827 159.701,286.852 160.570,287.471 159.886 C 287.794 159.530,288.517 158.250,289.080 157.042 L 290.102 154.845 290.100 116.883 C 290.098 75.351,290.167 76.678,287.725 71.293 C 284.354 63.858,278.409 58.446,270.330 55.457 C 268.079 54.625,267.102 54.557,254.389 54.358 C 242.914 54.178,240.795 54.054,240.516 53.546 C 240.334 53.217,239.609 51.518,238.904 49.772 C 232.441 33.760,211.970 22.141,194.605 24.628 M206.228 29.751 C 218.482 32.096,228.601 39.317,233.586 49.275 C 236.029 54.155,236.093 53.999,231.687 53.861 L 228.009 53.746 226.579 51.214 C 215.110 30.905,182.501 30.889,171.038 51.188 L 169.593 53.746 165.915 53.861 C 161.566 53.997,161.589 54.037,163.608 49.952 C 171.009 34.977,188.993 26.453,206.228 29.751 M202.238 40.760 C 210.341 41.689,217.452 45.642,221.438 51.434 C 223.568 54.531,224.988 54.346,199.113 54.340 C 174.462 54.333,174.721 54.353,175.656 52.551 C 178.734 46.618,186.840 41.766,195.329 40.776 C 196.799 40.605,198.182 40.443,198.402 40.415 C 198.621 40.388,200.348 40.543,202.238 40.760 M143.224 58.584 C 143.793 58.803,143.856 61.956,143.856 90.153 L 143.856 121.479 139.660 121.479 L 135.465 121.479 135.465 90.143 C 135.465 65.449,135.570 58.765,135.964 58.606 C 136.686 58.315,142.477 58.297,143.224 58.584 M260.307 58.584 C 260.876 58.803,260.939 61.956,260.939 90.153 L 260.939 121.479 256.743 121.479 L 252.547 121.479 252.547 90.143 C 252.547 65.449,252.653 58.765,253.047 58.606 C 253.769 58.315,259.560 58.297,260.307 58.584 M247.752 90.110 L 247.752 121.479 244.215 121.479 C 237.145 121.479,236.164 123.047,236.164 134.345 C 236.164 145.818,236.919 147.074,244.003 147.384 L 247.752 147.548 247.752 153.894 L 247.752 160.240 198.202 160.240 L 148.651 160.240 148.651 153.894 L 148.651 147.548 152.400 147.384 C 159.484 147.074,160.240 145.818,160.240 134.345 C 160.240 123.047,159.258 121.479,152.189 121.479 L 148.651 121.479 148.651 90.110 L 148.651 58.741 198.202 58.741 L 247.752 58.741 247.752 90.110 M269.242 59.973 C 276.293 62.354,281.839 68.003,284.600 75.613 L 285.510 78.122 285.624 115.398 C 285.746 155.303,285.767 154.846,283.695 157.206 C 281.415 159.802,279.777 160.240,272.332 160.240 L 265.734 160.240 265.734 153.894 L 265.734 147.548 269.483 147.384 C 276.567 147.074,277.323 145.818,277.323 134.345 C 277.323 123.136,276.267 121.500,269.031 121.485 L 265.734 121.479 265.734 90.310 C 265.734 64.930,265.831 59.141,266.256 59.141 C 266.543 59.141,267.887 59.515,269.242 59.973 M130.669 90.509 L 130.669 121.479 127.334 121.479 C 120.127 121.479,119.081 123.129,119.081 134.504 C 119.081 145.696,119.922 147.078,126.920 147.384 L 130.669 147.548 130.669 153.894 L 130.669 160.240 124.575 160.236 C 117.841 160.232,115.469 159.480,113.592 156.756 C 111.836 154.206,111.867 154.997,111.980 115.682 L 112.088 78.122 113.048 75.539 C 115.845 68.010,120.765 62.994,128.316 59.973 C 130.873 58.950,130.669 56.308,130.669 90.509 M154.372 126.334 C 154.852 126.586,155.377 126.991,155.538 127.233 C 156.059 128.012,155.900 141.642,155.365 142.178 C 154.489 143.054,124.706 142.845,124.033 141.958 C 123.640 141.441,123.499 139.468,123.489 134.395 L 123.477 127.531 124.529 126.702 C 125.780 125.718,152.574 125.387,154.372 126.334 M271.455 126.334 C 271.935 126.586,272.460 126.991,272.621 127.233 C 273.142 128.012,272.983 141.642,272.448 142.178 C 272.091 142.534,268.048 142.657,256.727 142.657 L 241.487 142.657 241.023 141.640 C 240.018 139.433,240.418 127.977,241.540 126.855 L 242.521 125.874 256.552 125.874 C 266.351 125.874,270.845 126.013,271.455 126.334 M143.360 147.385 C 143.756 147.636,143.842 151.960,143.760 167.658 L 143.656 187.612 139.660 187.612 L 135.664 187.612 135.561 167.658 C 135.479 151.960,135.564 147.636,135.960 147.385 C 136.237 147.209,137.902 147.065,139.660 147.065 C 141.419 147.065,143.084 147.209,143.360 147.385 M260.443 147.385 C 260.839 147.636,260.924 151.960,260.843 167.658 L 260.739 187.612 256.743 187.612 L 252.747 187.612 252.644 167.658 C 252.562 151.960,252.647 147.636,253.043 147.385 C 253.320 147.209,254.985 147.065,256.743 147.065 C 258.501 147.065,260.167 147.209,260.443 147.385 M283.268 180.619 C 283.525 185.345,283.909 191.818,284.119 195.005 C 284.330 198.192,284.692 204.216,284.922 208.392 C 285.153 212.567,285.515 218.861,285.727 222.378 C 285.938 225.894,286.379 233.536,286.706 239.361 C 287.032 245.185,287.486 253.097,287.713 256.943 C 287.940 260.789,288.308 267.083,288.532 270.929 C 288.756 274.775,289.122 280.623,289.346 283.925 C 290.015 293.805,289.955 299.960,289.163 302.565 C 286.871 310.098,280.015 315.178,270.401 316.465 C 265.983 317.056,131.288 317.043,127.349 316.451 C 113.063 314.303,106.823 306.522,107.881 292.175 C 108.280 286.763,108.648 280.744,109.911 258.941 C 110.350 251.359,110.891 242.278,111.112 238.761 C 111.334 235.245,111.688 229.221,111.899 225.375 C 112.109 221.528,112.463 215.415,112.684 211.788 C 112.906 208.162,113.272 201.958,113.497 198.002 C 113.854 191.750,114.592 179.943,115.368 168.095 L 115.600 164.562 116.841 164.833 C 117.523 164.982,120.904 165.194,124.354 165.304 L 130.625 165.504 130.747 177.229 C 130.906 192.522,131.041 192.748,139.860 192.524 C 148.465 192.306,148.416 192.392,148.574 177.194 L 148.696 165.435 198.224 165.435 L 247.752 165.435 247.753 176.723 C 247.754 192.292,247.820 192.408,256.745 192.408 C 265.667 192.408,265.733 192.292,265.734 176.723 L 265.734 165.435 271.828 165.427 C 275.510 165.422,278.713 165.214,279.920 164.900 L 281.918 164.381 282.359 168.204 C 282.601 170.307,283.010 175.894,283.268 180.619 M152.941 205.824 C 149.108 206.740,145.680 209.606,143.895 213.387 C 142.866 215.566,142.856 215.676,142.739 226.734 L 142.621 237.884 143.823 239.379 L 145.024 240.874 145.139 259.198 L 145.255 277.522 146.460 279.308 C 147.123 280.289,148.479 281.596,149.474 282.211 L 151.283 283.329 198.740 283.320 C 251.968 283.310,247.739 283.546,250.360 280.437 C 252.782 277.565,252.738 277.950,252.845 258.369 L 252.943 240.415 253.844 239.456 C 254.737 238.505,254.745 238.385,254.745 226.840 L 254.745 215.185 253.383 212.673 C 251.841 209.828,250.251 208.281,247.238 206.693 L 245.155 205.594 199.800 205.530 C 174.063 205.493,153.795 205.620,152.941 205.824 M245.791 211.120 C 246.760 211.631,248.092 212.815,248.751 213.750 L 249.950 215.450 250.150 225.308 C 250.260 230.729,250.207 235.482,250.033 235.869 C 249.738 236.526,248.739 236.566,235.248 236.469 L 220.779 236.364 220.579 232.496 C 220.170 224.592,220.127 224.575,200.000 224.575 C 179.951 224.575,179.874 224.606,179.421 232.767 L 179.221 236.364 163.683 236.468 C 152.546 236.543,147.991 236.445,147.599 236.120 C 146.900 235.539,146.817 219.248,147.501 216.783 C 148.296 213.917,150.626 211.381,153.247 210.529 C 153.686 210.386,174.292 210.252,199.038 210.230 L 244.030 210.190 245.791 211.120 M215.410 229.795 C 216.489 230.875,216.467 244.681,215.385 245.364 C 214.203 246.110,185.197 245.855,184.564 245.093 C 183.588 243.917,183.788 230.272,184.792 229.538 C 186.231 228.486,214.336 228.722,215.410 229.795 M106.492 239.461 C 106.333 241.933,106.123 244.091,106.025 244.256 C 105.660 244.870,78.780 244.607,77.562 243.976 C 74.718 242.506,74.206 238.708,76.537 236.377 L 77.949 234.965 92.365 234.965 L 106.781 234.965 106.492 239.461 M323.683 235.632 C 326.364 237.216,326.695 241.067,324.336 243.229 L 322.879 244.565 307.393 244.460 L 291.908 244.356 291.637 239.975 C 291.488 237.566,291.454 235.453,291.561 235.280 C 291.994 234.578,322.465 234.912,323.683 235.632 M179.421 243.589 C 179.644 246.308,180.958 248.486,183.018 249.551 C 184.766 250.455,215.260 250.442,217.011 249.536 C 218.968 248.524,220.578 245.938,220.586 243.796 C 220.596 240.768,219.737 240.936,234.592 241.053 L 247.952 241.159 247.952 258.874 L 247.952 276.589 246.647 277.755 L 245.342 278.921 198.849 278.921 C 146.308 278.921,150.811 279.207,149.866 275.806 C 149.407 274.152,149.295 252.019,149.711 245.212 L 149.972 240.949 164.596 241.054 L 179.221 241.159 179.421 243.589 M105.283 253.746 C 105.272 257.549,105.017 262.376,103.859 280.719 C 103.650 284.016,103.369 289.725,103.233 293.407 L 102.986 300.100 99.945 300.095 C 90.460 300.080,82.913 294.239,80.523 285.063 C 79.711 281.946,79.618 249.941,80.420 249.612 C 80.694 249.500,86.404 249.440,93.107 249.479 L 105.295 249.550 105.283 253.746 M319.593 250.050 C 320.474 252.196,319.893 284.281,318.925 286.913 C 315.714 295.649,308.424 300.377,298.701 300.029 L 295.105 299.900 295.036 296.703 C 294.974 293.854,294.675 288.540,293.282 265.534 C 292.584 253.997,292.445 250.489,292.665 249.916 C 293.033 248.957,319.198 249.087,319.593 250.050 M107.578 311.075 C 110.669 315.339,116.272 318.920,122.098 320.358 L 124.600 320.975 124.885 325.910 C 125.042 328.624,125.058 331.136,124.921 331.492 C 124.697 332.077,123.162 332.124,108.990 331.986 C 87.777 331.779,88.312 332.015,88.312 322.873 C 88.312 311.930,91.346 308.631,101.503 308.532 L 105.704 308.492 107.578 311.075 M306.748 309.792 C 311.371 312.191,312.887 315.395,312.887 322.768 C 312.887 331.936,313.279 331.777,290.164 331.984 C 279.195 332.082,273.094 331.995,272.835 331.736 C 272.579 331.480,272.538 329.485,272.720 326.207 L 273.006 321.079 276.176 320.186 C 282.531 318.396,287.433 315.242,290.852 310.744 L 292.627 308.409 298.661 308.568 C 304.254 308.715,304.846 308.805,306.748 309.792 M138.019 321.911 C 138.153 322.258,138.262 327.908,138.262 334.466 C 138.262 349.053,138.754 347.652,133.624 347.652 L 129.471 347.652 129.471 334.466 L 129.471 321.279 133.624 321.279 C 137.042 321.279,137.820 321.391,138.019 321.911 M254.313 321.521 C 254.844 321.725,254.945 322.587,254.945 326.916 L 254.945 332.068 198.801 332.068 L 142.657 332.068 142.657 326.906 C 142.657 323.151,142.793 321.690,143.157 321.543 C 143.877 321.253,253.557 321.231,254.313 321.521 M267.932 334.466 L 267.932 347.453 263.836 347.566 C 260.373 347.663,259.739 347.586,259.734 347.067 C 259.731 346.730,259.728 341.059,259.728 334.466 C 259.728 327.872,259.731 322.202,259.734 321.864 C 259.739 321.346,260.373 321.268,263.836 321.365 L 267.932 321.479 267.932 334.466 M310.369 338.888 C 309.703 346.831,307.586 347.652,287.793 347.652 C 270.451 347.652,272.285 348.409,272.720 341.437 L 273.002 336.930 289.848 336.738 C 299.113 336.632,307.413 336.379,308.292 336.175 C 310.506 335.661,310.626 335.818,310.369 338.888 M109.354 336.721 L 124.603 336.928 124.877 340.992 C 125.028 343.226,125.090 345.594,125.014 346.254 L 124.875 347.453 111.489 347.571 C 93.271 347.733,90.746 346.632,90.718 338.519 L 90.709 335.980 92.408 336.246 C 93.342 336.393,100.968 336.606,109.354 336.721 M254.745 342.258 L 254.745 347.453 198.701 347.554 L 142.657 347.655 142.657 342.258 L 142.657 336.860 198.701 336.962 L 254.745 337.063 254.745 342.258 " stroke="none" fill="#38373f" fill-rule="evenodd"></path><path id="path1" d="M191.209 29.752 C 178.433 32.342,168.843 39.361,163.608 49.952 C 161.589 54.037,161.566 53.997,165.915 53.861 L 169.593 53.746 171.038 51.188 C 182.501 30.889,215.110 30.905,226.579 51.214 L 228.009 53.746 231.687 53.861 C 236.093 53.999,236.029 54.155,233.586 49.275 C 226.424 34.970,207.799 26.389,191.209 29.752 M148.651 90.110 L 148.651 121.479 152.189 121.479 C 159.258 121.479,160.240 123.047,160.240 134.345 C 160.240 145.818,159.484 147.074,152.400 147.384 L 148.651 147.548 148.651 153.894 L 148.651 160.240 198.202 160.240 L 247.752 160.240 247.752 153.894 L 247.752 147.548 244.003 147.384 C 236.919 147.074,236.164 145.818,236.164 134.345 C 236.164 123.047,237.145 121.479,244.215 121.479 L 247.752 121.479 247.752 90.110 L 247.752 58.741 198.202 58.741 L 148.651 58.741 148.651 90.110 M265.734 90.310 L 265.734 121.479 269.031 121.485 C 276.267 121.500,277.323 123.136,277.323 134.345 C 277.323 145.818,276.567 147.074,269.483 147.384 L 265.734 147.548 265.734 153.894 L 265.734 160.240 272.332 160.240 C 279.777 160.240,281.415 159.802,283.695 157.206 C 285.767 154.846,285.746 155.303,285.624 115.398 L 285.510 78.122 284.600 75.613 C 281.563 67.240,272.543 59.141,266.256 59.141 C 265.831 59.141,265.734 64.930,265.734 90.310 M128.316 59.973 C 120.765 62.994,115.845 68.010,113.048 75.539 L 112.088 78.122 111.980 115.682 C 111.867 154.997,111.836 154.206,113.592 156.756 C 115.469 159.480,117.841 160.232,124.575 160.236 L 130.669 160.240 130.669 153.894 L 130.669 147.548 126.920 147.384 C 119.922 147.078,119.081 145.696,119.081 134.504 C 119.081 123.129,120.127 121.479,127.334 121.479 L 130.669 121.479 130.669 90.509 C 130.669 56.308,130.873 58.950,128.316 59.973 M279.920 164.900 C 278.713 165.214,275.510 165.422,271.828 165.427 L 265.734 165.435 265.734 176.723 C 265.733 192.292,265.667 192.408,256.745 192.408 C 247.820 192.408,247.754 192.292,247.753 176.723 L 247.752 165.435 198.224 165.435 L 148.696 165.435 148.574 177.194 C 148.416 192.392,148.465 192.306,139.860 192.524 C 131.041 192.748,130.906 192.522,130.747 177.229 L 130.625 165.504 124.354 165.304 C 120.904 165.194,117.523 164.982,116.841 164.833 L 115.600 164.562 115.368 168.095 C 114.592 179.943,113.854 191.750,113.497 198.002 C 113.272 201.958,112.906 208.162,112.684 211.788 C 112.463 215.415,112.109 221.528,111.899 225.375 C 111.688 229.221,111.334 235.245,111.112 238.761 C 110.891 242.278,110.350 251.359,109.911 258.941 C 108.648 280.744,108.280 286.763,107.881 292.175 C 106.823 306.522,113.063 314.303,127.349 316.451 C 131.288 317.043,265.983 317.056,270.401 316.465 C 280.015 315.178,286.871 310.098,289.163 302.565 C 289.955 299.960,290.015 293.805,289.346 283.925 C 289.122 280.623,288.756 274.775,288.532 270.929 C 288.308 267.083,287.940 260.789,287.713 256.943 C 287.486 253.097,287.032 245.185,286.706 239.361 C 286.379 233.536,285.938 225.894,285.727 222.378 C 285.515 218.861,285.153 212.567,284.922 208.392 C 284.692 204.216,284.330 198.192,284.119 195.005 C 283.909 191.818,283.525 185.345,283.268 180.619 C 283.010 175.894,282.601 170.307,282.359 168.204 L 281.918 164.381 279.920 164.900 M247.238 206.693 C 250.251 208.281,251.841 209.828,253.383 212.673 L 254.745 215.185 254.745 226.840 C 254.745 238.385,254.737 238.505,253.844 239.456 L 252.943 240.415 252.845 258.369 C 252.738 277.950,252.782 277.565,250.360 280.437 C 247.739 283.546,251.968 283.310,198.740 283.320 L 151.283 283.329 149.474 282.211 C 148.479 281.596,147.123 280.289,146.460 279.308 L 145.255 277.522 145.139 259.198 L 145.024 240.874 143.823 239.379 L 142.621 237.884 142.739 226.734 C 142.885 212.932,143.935 210.011,149.827 207.005 C 152.782 205.497,153.910 205.464,199.800 205.530 L 245.155 205.594 247.238 206.693 M80.420 249.612 C 79.618 249.941,79.711 281.946,80.523 285.063 C 82.913 294.239,90.460 300.080,99.945 300.095 L 102.986 300.100 103.233 293.407 C 103.369 289.725,103.650 284.016,103.859 280.719 C 105.017 262.376,105.272 257.549,105.283 253.746 L 105.295 249.550 93.107 249.479 C 86.404 249.440,80.694 249.500,80.420 249.612 M292.665 249.916 C 292.445 250.489,292.584 253.997,293.282 265.534 C 294.675 288.540,294.974 293.854,295.036 296.703 L 295.105 299.900 298.701 300.029 C 308.424 300.377,315.714 295.649,318.925 286.913 C 319.893 284.281,320.474 252.196,319.593 250.050 C 319.198 249.087,293.033 248.957,292.665 249.916 " stroke="none" fill="#b2aa83" fill-rule="evenodd"></path><path id="path2" d="M183.417 2.435 C 181.109 2.627,177.827 2.892,176.124 3.023 C 174.421 3.153,173.027 3.426,173.027 3.628 C 173.027 3.830,171.858 3.996,170.430 3.996 C 168.964 3.996,167.832 4.170,167.832 4.396 C 167.832 4.615,166.843 4.795,165.634 4.795 C 164.426 4.795,163.437 4.975,163.437 5.195 C 163.437 5.415,162.627 5.594,161.638 5.594 C 160.649 5.594,159.840 5.753,159.840 5.947 C 159.840 6.141,158.312 6.426,156.444 6.582 C 154.575 6.738,153.047 7.029,153.047 7.229 C 153.047 7.429,152.418 7.592,151.648 7.592 C 150.879 7.592,150.250 7.772,150.250 7.992 C 150.250 8.212,149.620 8.392,148.851 8.392 C 148.082 8.392,147.453 8.571,147.453 8.791 C 147.453 9.011,146.913 9.191,146.254 9.191 C 145.594 9.191,145.055 9.371,145.055 9.590 C 145.055 9.810,144.426 9.990,143.656 9.990 C 142.887 9.990,142.258 10.149,142.258 10.344 C 142.258 10.538,141.269 10.821,140.060 10.972 C 138.851 11.123,137.862 11.413,137.862 11.617 C 137.862 11.821,137.323 11.988,136.663 11.988 C 136.004 11.988,135.465 12.168,135.465 12.388 C 135.465 12.607,135.015 12.787,134.466 12.787 C 133.916 12.787,133.467 12.967,133.467 13.187 C 133.467 13.407,132.927 13.586,132.268 13.586 C 131.608 13.586,131.069 13.766,131.069 13.986 C 131.069 14.206,130.799 14.386,130.470 14.386 C 130.140 14.386,129.870 14.542,129.870 14.733 C 129.870 14.923,129.110 15.182,128.180 15.306 C 127.251 15.431,126.427 15.724,126.349 15.958 C 126.271 16.192,125.683 16.384,125.042 16.384 C 124.401 16.384,123.876 16.563,123.876 16.783 C 123.876 17.003,123.606 17.183,123.277 17.183 C 122.947 17.183,122.677 17.363,122.677 17.582 C 122.677 17.802,122.138 17.982,121.479 17.982 C 120.819 17.982,120.280 18.162,120.280 18.382 C 120.280 18.601,119.920 18.781,119.481 18.781 C 119.041 18.781,118.681 18.953,118.681 19.163 C 118.681 19.373,118.052 19.662,117.283 19.807 C 116.513 19.951,115.884 20.229,115.884 20.424 C 115.884 20.619,115.524 20.779,115.085 20.779 C 114.645 20.779,114.286 20.959,114.286 21.179 C 114.286 21.399,114.016 21.578,113.686 21.578 C 113.357 21.578,113.087 21.758,113.087 21.978 C 113.087 22.198,112.727 22.378,112.288 22.378 C 111.848 22.378,111.489 22.557,111.489 22.777 C 111.489 22.997,111.129 23.177,110.689 23.177 C 110.250 23.177,109.890 23.348,109.890 23.558 C 109.890 23.768,109.261 24.058,108.492 24.202 C 107.722 24.346,107.093 24.591,107.093 24.745 C 107.093 24.899,106.464 25.273,105.694 25.574 C 104.925 25.876,104.296 26.269,104.296 26.448 C 104.296 26.627,103.976 26.773,103.585 26.773 C 103.194 26.773,102.615 27.132,102.299 27.571 C 101.983 28.009,101.134 28.479,100.413 28.614 C 99.691 28.749,99.101 29.020,99.101 29.215 C 99.101 29.411,98.781 29.570,98.390 29.570 C 97.999 29.570,97.420 29.930,97.103 30.370 C 96.786 30.809,96.363 31.169,96.162 31.169 C 95.962 31.169,95.507 31.504,95.151 31.914 C 94.796 32.324,93.955 32.781,93.284 32.928 C 92.613 33.076,91.809 33.549,91.498 33.981 C 91.187 34.412,90.652 34.765,90.310 34.765 C 89.967 34.765,89.422 35.136,89.099 35.589 C 88.776 36.043,87.927 36.693,87.213 37.034 C 86.499 37.375,85.914 37.813,85.914 38.008 C 85.914 38.202,85.567 38.362,85.142 38.362 C 84.717 38.362,84.255 38.721,84.116 39.161 C 83.976 39.600,83.597 39.960,83.272 39.960 C 82.948 39.960,82.198 40.410,81.605 40.959 C 81.012 41.508,80.377 41.958,80.193 41.958 C 80.008 41.958,79.166 42.677,78.322 43.556 C 77.477 44.436,76.565 45.155,76.295 45.155 C 76.025 45.155,75.040 45.964,74.105 46.953 C 73.171 47.942,72.205 48.751,71.959 48.751 C 71.713 48.751,70.226 50.055,68.654 51.648 C 67.082 53.242,65.664 54.506,65.502 54.458 C 65.257 54.385,63.566 55.948,61.738 57.938 C 61.518 58.177,60.529 59.161,59.540 60.124 C 58.551 61.087,57.542 62.114,57.296 62.406 C 57.051 62.698,56.467 63.202,55.998 63.525 C 55.529 63.848,55.145 64.350,55.145 64.641 C 55.145 65.168,54.610 65.945,53.623 66.852 C 51.147 69.128,49.550 70.819,49.550 71.165 C 49.550 71.394,48.651 72.456,47.552 73.526 C 46.454 74.597,45.554 75.658,45.554 75.885 C 45.554 76.112,44.925 76.926,44.156 77.696 C 43.387 78.465,42.757 79.358,42.757 79.680 C 42.757 80.002,42.398 80.380,41.959 80.519 C 41.520 80.659,41.042 81.255,40.896 81.845 C 40.751 82.435,40.301 83.208,39.896 83.563 C 39.492 83.919,39.161 84.332,39.161 84.481 C 39.161 84.630,38.693 85.220,38.120 85.792 C 37.548 86.365,36.901 87.345,36.683 87.972 C 36.464 88.598,36.123 89.111,35.925 89.111 C 35.727 89.111,35.564 89.341,35.564 89.622 C 35.564 89.903,35.205 90.392,34.765 90.709 C 34.326 91.026,33.966 91.605,33.966 91.996 C 33.966 92.387,33.786 92.707,33.566 92.707 C 33.347 92.707,33.167 92.977,33.167 93.307 C 33.167 93.636,32.990 93.906,32.775 93.906 C 32.559 93.906,32.261 94.401,32.112 95.005 C 31.962 95.609,31.509 96.395,31.105 96.750 C 30.701 97.106,30.370 97.600,30.370 97.849 C 30.370 98.098,30.190 98.302,29.970 98.302 C 29.750 98.302,29.570 98.661,29.570 99.101 C 29.570 99.540,29.391 99.900,29.171 99.900 C 28.951 99.900,28.771 100.260,28.771 100.699 C 28.771 101.139,28.595 101.499,28.379 101.499 C 28.164 101.499,27.874 101.948,27.737 102.498 C 27.599 103.047,27.325 103.497,27.130 103.497 C 26.934 103.497,26.773 103.856,26.773 104.296 C 26.773 104.735,26.627 105.095,26.448 105.095 C 26.269 105.095,25.876 105.724,25.574 106.494 C 25.273 107.263,24.879 107.892,24.701 107.892 C 24.522 107.892,24.376 108.217,24.376 108.615 C 24.376 109.012,24.112 109.687,23.789 110.113 C 23.466 110.540,23.197 111.204,23.190 111.588 C 23.183 111.973,22.997 112.288,22.777 112.288 C 22.557 112.288,22.378 112.647,22.378 113.087 C 22.378 113.526,22.198 113.886,21.978 113.886 C 21.758 113.886,21.578 114.256,21.578 114.709 C 21.578 115.161,21.399 115.421,21.179 115.285 C 20.959 115.149,20.779 115.408,20.779 115.861 C 20.779 116.313,20.599 116.683,20.380 116.683 C 20.160 116.683,19.980 117.032,19.980 117.459 C 19.980 117.886,19.788 118.353,19.553 118.498 C 19.318 118.643,19.226 119.023,19.349 119.342 C 19.473 119.666,19.397 119.814,19.176 119.677 C 18.949 119.537,18.781 119.952,18.781 120.656 C 18.781 121.328,18.601 121.878,18.382 121.878 C 18.162 121.878,17.982 122.238,17.982 122.677 C 17.982 123.117,17.802 123.477,17.582 123.477 C 17.363 123.477,17.183 123.926,17.183 124.476 C 17.183 125.025,17.003 125.475,16.783 125.475 C 16.563 125.475,16.384 125.834,16.384 126.274 C 16.384 126.713,16.224 127.073,16.029 127.073 C 15.835 127.073,15.554 127.882,15.406 128.871 C 15.257 129.860,14.967 130.669,14.761 130.669 C 14.554 130.669,14.386 131.119,14.386 131.668 C 14.386 132.218,14.206 132.667,13.986 132.667 C 13.766 132.667,13.586 133.207,13.586 133.866 C 13.586 134.525,13.407 135.065,13.187 135.065 C 12.967 135.065,12.787 135.514,12.787 136.064 C 12.787 136.613,12.607 137.063,12.388 137.063 C 12.168 137.063,11.988 137.587,11.988 138.228 C 11.988 138.869,11.810 139.454,11.592 139.527 C 11.375 139.600,11.079 140.784,10.936 142.158 C 10.793 143.531,10.521 144.655,10.333 144.655 C 10.144 144.655,9.990 145.105,9.990 145.654 C 9.990 146.204,9.810 146.653,9.590 146.653 C 9.371 146.653,9.191 147.373,9.191 148.252 C 9.191 149.131,9.011 149.850,8.791 149.850 C 8.571 149.850,8.392 150.480,8.392 151.249 C 8.392 152.018,8.212 152.647,7.992 152.647 C 7.772 152.647,7.592 153.277,7.592 154.046 C 7.592 154.815,7.429 155.445,7.230 155.445 C 7.031 155.445,6.740 157.153,6.583 159.241 C 6.427 161.329,6.140 163.037,5.946 163.037 C 5.753 163.037,5.594 164.026,5.594 165.235 C 5.594 166.444,5.415 167.433,5.195 167.433 C 4.973 167.433,4.795 168.498,4.795 169.830 C 4.795 171.162,4.618 172.228,4.396 172.228 C 4.165 172.228,3.996 173.493,3.996 175.225 C 3.996 176.956,3.827 178.222,3.596 178.222 C 3.352 178.222,3.197 180.087,3.197 183.017 C 3.197 185.947,3.041 187.812,2.797 187.812 C 2.540 187.812,2.398 191.941,2.398 199.401 C 2.398 206.860,2.540 210.989,2.797 210.989 C 3.039 210.989,3.197 212.721,3.197 215.385 C 3.197 218.049,3.354 219.780,3.596 219.780 C 3.831 219.780,3.996 221.179,3.996 223.177 C 3.996 225.175,4.161 226.573,4.396 226.573 C 4.621 226.573,4.795 227.706,4.795 229.171 C 4.795 230.636,4.969 231.768,5.195 231.768 C 5.415 231.768,5.594 232.577,5.594 233.566 C 5.594 234.555,5.748 235.365,5.935 235.365 C 6.122 235.365,6.396 236.938,6.544 238.861 C 6.691 240.784,6.987 242.418,7.202 242.491 C 7.417 242.564,7.592 243.418,7.592 244.389 C 7.592 245.360,7.772 246.154,7.992 246.154 C 8.212 246.154,8.392 246.773,8.392 247.529 C 8.392 248.285,8.571 249.015,8.791 249.151 C 9.011 249.287,9.191 249.837,9.191 250.373 C 9.191 250.910,9.371 251.349,9.590 251.349 C 9.810 251.349,9.990 251.978,9.990 252.747 C 9.990 253.516,10.149 254.146,10.344 254.146 C 10.538 254.146,10.821 255.135,10.972 256.344 C 11.123 257.552,11.413 258.541,11.617 258.541 C 11.821 258.541,11.988 259.261,11.988 260.140 C 11.988 261.019,12.168 261.738,12.388 261.738 C 12.607 261.738,12.787 262.188,12.787 262.737 C 12.787 263.287,12.967 263.736,13.187 263.736 C 13.407 263.736,13.586 264.096,13.586 264.535 C 13.586 264.975,13.766 265.335,13.986 265.335 C 14.206 265.335,14.386 265.784,14.386 266.334 C 14.386 266.883,14.542 267.333,14.734 267.333 C 14.925 267.333,15.201 268.232,15.347 269.331 C 15.493 270.430,15.786 271.329,15.998 271.329 C 16.210 271.329,16.384 271.778,16.384 272.328 C 16.384 272.877,16.563 273.327,16.783 273.327 C 17.003 273.327,17.183 273.686,17.183 274.126 C 17.183 274.565,17.363 274.925,17.582 274.925 C 17.802 274.925,17.982 275.375,17.982 275.924 C 17.982 276.474,18.162 276.923,18.382 276.923 C 18.601 276.923,18.782 277.238,18.784 277.622 C 18.785 278.007,19.055 278.837,19.383 279.466 C 19.711 280.096,19.980 280.950,19.980 281.364 C 19.980 281.779,20.160 282.118,20.380 282.118 C 20.599 282.118,20.779 282.478,20.779 282.917 C 20.779 283.357,20.959 283.716,21.179 283.716 C 21.399 283.716,21.578 283.986,21.578 284.316 C 21.578 284.645,21.758 284.915,21.978 284.915 C 22.198 284.915,22.378 285.275,22.378 285.714 C 22.378 286.154,22.537 286.513,22.733 286.513 C 22.928 286.513,23.206 287.143,23.350 287.912 C 23.495 288.681,23.784 289.311,23.994 289.311 C 24.204 289.311,24.376 289.670,24.376 290.110 C 24.376 290.549,24.555 290.909,24.775 290.909 C 24.995 290.909,25.175 291.269,25.175 291.708 C 25.175 292.148,25.355 292.507,25.574 292.507 C 25.794 292.507,25.974 292.738,25.974 293.019 C 25.974 293.300,26.334 293.789,26.773 294.106 C 27.213 294.423,27.572 294.930,27.572 295.233 C 27.572 296.094,28.854 298.633,29.650 299.348 C 30.046 299.703,30.370 300.287,30.370 300.646 C 30.370 301.005,30.549 301.299,30.769 301.299 C 30.989 301.299,31.169 301.568,31.169 301.898 C 31.169 302.228,31.314 302.498,31.492 302.498 C 31.669 302.498,32.132 303.217,32.519 304.096 C 32.907 304.975,33.391 305.694,33.595 305.694 C 33.799 305.694,33.966 305.964,33.966 306.294 C 33.966 306.623,34.146 306.893,34.366 306.893 C 34.585 306.893,34.765 307.213,34.765 307.604 C 34.765 307.995,35.125 308.574,35.564 308.891 C 36.004 309.208,36.364 309.689,36.364 309.960 C 36.364 310.231,36.813 310.903,37.363 311.452 C 37.912 312.002,38.362 312.689,38.362 312.981 C 38.362 313.272,38.721 313.769,39.161 314.086 C 39.600 314.403,39.960 314.810,39.960 314.991 C 39.960 315.172,40.410 315.804,40.959 316.397 C 41.508 316.990,41.958 317.681,41.958 317.933 C 41.958 318.185,42.496 318.816,43.153 319.336 C 43.811 319.855,44.350 320.594,44.352 320.979 C 44.354 321.364,44.523 321.678,44.728 321.678 C 44.933 321.678,45.212 322.029,45.348 322.457 C 45.484 322.885,45.946 323.347,46.374 323.483 C 46.802 323.619,47.153 324.000,47.153 324.329 C 47.153 324.658,48.142 325.901,49.351 327.090 C 50.559 328.280,51.548 329.436,51.548 329.660 C 51.548 330.176,69.368 348.052,69.883 348.052 C 70.094 348.052,71.076 348.861,72.065 349.850 C 73.054 350.839,74.102 351.649,74.394 351.650 C 74.686 351.650,75.285 352.195,75.724 352.860 C 76.164 353.525,76.973 354.183,77.522 354.322 C 78.501 354.568,79.129 355.128,80.308 356.806 C 80.631 357.266,81.216 357.642,81.607 357.642 C 81.998 357.642,82.318 357.810,82.318 358.015 C 82.318 358.220,82.719 358.515,83.209 358.671 C 83.699 358.826,84.580 359.468,85.167 360.096 C 85.754 360.725,86.456 361.239,86.727 361.239 C 86.997 361.239,87.510 361.573,87.865 361.981 C 88.221 362.389,88.916 362.851,89.411 363.007 C 89.905 363.163,90.310 363.458,90.310 363.663 C 90.310 363.868,90.626 364.036,91.013 364.036 C 91.399 364.036,91.940 364.396,92.215 364.835 C 92.489 365.275,92.905 365.634,93.139 365.634 C 93.372 365.634,93.833 365.904,94.163 366.234 C 94.493 366.563,95.109 366.833,95.533 366.833 C 95.957 366.833,96.304 367.013,96.304 367.233 C 96.304 367.453,96.534 367.632,96.815 367.632 C 97.096 367.632,97.585 367.992,97.902 368.432 C 98.219 368.871,98.798 369.231,99.189 369.231 C 99.580 369.231,99.900 369.411,99.900 369.630 C 99.900 369.850,100.093 370.030,100.328 370.030 C 100.564 370.030,101.026 370.300,101.356 370.629 C 101.685 370.959,102.302 371.229,102.726 371.229 C 103.150 371.229,103.497 371.409,103.497 371.628 C 103.497 371.848,103.856 372.028,104.296 372.028 C 104.735 372.028,105.095 372.208,105.095 372.428 C 105.095 372.647,105.365 372.827,105.694 372.827 C 106.024 372.827,106.294 373.007,106.294 373.227 C 106.294 373.447,106.653 373.626,107.093 373.626 C 107.532 373.626,107.892 373.806,107.892 374.026 C 107.892 374.246,108.252 374.426,108.691 374.426 C 109.131 374.426,109.491 374.597,109.491 374.807 C 109.491 375.017,110.120 375.307,110.889 375.451 C 111.658 375.595,112.288 375.873,112.288 376.068 C 112.288 376.264,112.647 376.424,113.087 376.424 C 113.526 376.424,113.886 376.603,113.886 376.823 C 113.886 377.043,114.156 377.223,114.486 377.223 C 114.815 377.223,115.085 377.403,115.085 377.622 C 115.085 377.842,115.445 378.022,115.884 378.022 C 116.324 378.022,116.683 378.202,116.683 378.422 C 116.683 378.641,117.028 378.821,117.449 378.821 C 117.870 378.821,118.279 379.013,118.357 379.247 C 118.435 379.481,119.259 379.774,120.188 379.899 C 121.118 380.023,121.878 380.281,121.878 380.472 C 121.878 380.663,122.148 380.819,122.478 380.819 C 122.807 380.819,123.077 380.999,123.077 381.219 C 123.077 381.439,123.437 381.618,123.876 381.618 C 124.316 381.618,124.675 381.798,124.675 382.018 C 124.675 382.238,125.215 382.418,125.874 382.418 C 126.533 382.418,127.073 382.597,127.073 382.817 C 127.073 383.037,127.343 383.217,127.672 383.217 C 128.002 383.217,128.272 383.376,128.272 383.570 C 128.272 383.765,129.261 384.047,130.470 384.198 C 131.678 384.350,132.667 384.640,132.667 384.844 C 132.667 385.048,133.207 385.215,133.866 385.215 C 134.525 385.215,135.065 385.395,135.065 385.614 C 135.065 385.834,135.335 386.014,135.664 386.014 C 135.994 386.014,136.264 386.194,136.264 386.414 C 136.264 386.633,136.803 386.813,137.463 386.813 C 138.122 386.813,138.661 386.993,138.661 387.213 C 138.661 387.433,139.291 387.612,140.060 387.612 C 140.829 387.612,141.459 387.771,141.459 387.966 C 141.459 388.160,142.448 388.443,143.656 388.594 C 144.865 388.745,145.854 389.036,145.854 389.240 C 145.854 389.444,146.484 389.610,147.253 389.610 C 148.022 389.610,148.651 389.790,148.651 390.010 C 148.651 390.230,149.371 390.410,150.250 390.410 C 151.129 390.410,151.848 390.589,151.848 390.809 C 151.848 391.029,152.478 391.209,153.247 391.209 C 154.016 391.209,154.645 391.389,154.645 391.608 C 154.645 391.828,155.455 392.008,156.444 392.008 C 157.433 392.008,158.242 392.174,158.242 392.378 C 158.242 392.581,159.864 392.874,161.847 393.029 C 163.830 393.184,165.549 393.468,165.667 393.659 C 165.785 393.850,166.759 394.006,167.832 394.006 C 168.905 394.006,169.894 394.186,170.030 394.406 C 170.166 394.625,171.345 394.805,172.651 394.805 C 173.967 394.805,175.025 394.983,175.025 395.205 C 175.025 395.443,176.557 395.604,178.821 395.604 C 181.086 395.604,182.617 395.766,182.617 396.004 C 182.617 396.264,188.611 396.404,199.800 396.404 C 210.989 396.404,216.983 396.264,216.983 396.004 C 216.983 395.767,218.448 395.604,220.579 395.604 C 222.711 395.604,224.176 395.442,224.176 395.205 C 224.176 394.979,225.308 394.805,226.773 394.805 C 228.238 394.805,229.371 394.631,229.371 394.406 C 229.371 394.184,230.428 394.006,231.745 394.006 C 233.050 394.006,234.218 393.845,234.339 393.649 C 234.461 393.453,236.180 393.164,238.159 393.007 C 240.139 392.851,241.758 392.562,241.758 392.365 C 241.758 392.169,242.388 392.008,243.157 392.008 C 243.926 392.008,244.555 391.828,244.555 391.608 C 244.555 391.389,245.365 391.209,246.354 391.209 C 247.343 391.209,248.152 391.029,248.152 390.809 C 248.152 390.589,248.691 390.410,249.351 390.410 C 250.010 390.410,250.549 390.230,250.549 390.010 C 250.549 389.790,251.179 389.610,251.948 389.610 C 252.717 389.610,253.347 389.452,253.347 389.257 C 253.347 389.063,254.515 388.779,255.944 388.626 C 257.373 388.473,258.541 388.182,258.541 387.980 C 258.541 387.778,258.991 387.612,259.540 387.612 C 260.090 387.612,260.539 387.433,260.539 387.213 C 260.539 386.993,261.079 386.813,261.738 386.813 C 262.398 386.813,262.937 386.633,262.937 386.414 C 262.937 386.194,263.387 386.014,263.936 386.014 C 264.486 386.014,264.935 385.834,264.935 385.614 C 264.935 385.395,265.475 385.215,266.134 385.215 C 266.793 385.215,267.333 385.055,267.333 384.861 C 267.333 384.666,268.142 384.385,269.131 384.237 C 270.120 384.088,270.929 383.798,270.929 383.592 C 270.929 383.386,271.379 383.217,271.928 383.217 C 272.478 383.217,272.927 383.037,272.927 382.817 C 272.927 382.597,273.287 382.418,273.726 382.418 C 274.166 382.418,274.525 382.238,274.525 382.018 C 274.525 381.798,275.065 381.618,275.724 381.618 C 276.384 381.618,276.923 381.439,276.923 381.219 C 276.923 380.999,277.193 380.819,277.522 380.819 C 277.852 380.819,278.122 380.655,278.122 380.455 C 278.122 380.254,278.841 379.969,279.720 379.820 C 280.599 379.672,281.319 379.386,281.319 379.186 C 281.319 378.985,281.768 378.821,282.318 378.821 C 282.867 378.821,283.317 378.641,283.317 378.422 C 283.317 378.202,283.676 378.022,284.116 378.022 C 284.555 378.022,284.915 377.842,284.915 377.622 C 284.915 377.403,285.185 377.223,285.514 377.223 C 285.844 377.223,286.114 377.043,286.114 376.823 C 286.114 376.603,286.474 376.424,286.913 376.424 C 287.353 376.424,287.712 376.264,287.712 376.068 C 287.712 375.873,288.342 375.595,289.111 375.451 C 289.880 375.307,290.509 375.017,290.509 374.807 C 290.509 374.597,290.869 374.426,291.309 374.426 C 291.748 374.426,292.108 374.246,292.108 374.026 C 292.108 373.806,292.428 373.626,292.819 373.626 C 293.210 373.626,293.789 373.267,294.106 372.827 C 294.423 372.388,294.912 372.028,295.193 372.028 C 295.474 372.028,295.704 371.864,295.704 371.663 C 295.704 371.463,296.424 371.177,297.303 371.029 C 298.182 370.880,298.901 370.595,298.901 370.394 C 298.901 370.194,299.131 370.030,299.412 370.030 C 299.693 370.030,300.183 369.670,300.500 369.231 C 300.816 368.791,301.395 368.432,301.787 368.432 C 302.178 368.432,302.498 368.252,302.498 368.032 C 302.498 367.812,302.767 367.632,303.097 367.632 C 303.427 367.632,303.696 367.456,303.696 367.240 C 303.696 367.025,304.191 366.726,304.795 366.577 C 305.400 366.428,306.185 365.975,306.540 365.570 C 306.896 365.166,307.324 364.835,307.493 364.835 C 307.661 364.835,308.089 364.504,308.445 364.100 C 308.800 363.695,309.585 363.242,310.190 363.093 C 310.794 362.944,311.289 362.646,311.289 362.430 C 311.289 362.214,311.519 362.038,311.800 362.038 C 312.081 362.038,312.570 361.678,312.887 361.239 C 313.204 360.799,313.740 360.440,314.079 360.440 C 314.418 360.440,315.033 359.990,315.446 359.441 C 315.858 358.891,316.458 358.442,316.779 358.442 C 317.099 358.442,317.866 357.902,318.482 357.243 C 319.097 356.583,319.717 356.044,319.859 356.044 C 320.000 356.044,320.549 355.639,321.078 355.145 C 322.776 353.557,323.231 353.247,323.859 353.247 C 324.198 353.247,324.476 353.086,324.476 352.889 C 324.476 352.334,326.735 350.050,327.285 350.050 C 327.556 350.050,329.026 348.791,330.552 347.253 C 332.078 345.714,333.497 344.456,333.706 344.456 C 334.221 344.456,344.855 333.797,344.855 333.280 C 344.855 333.054,346.024 331.706,347.453 330.284 C 348.881 328.863,350.050 327.519,350.050 327.297 C 350.050 327.075,350.859 326.085,351.848 325.096 C 352.837 324.107,353.646 323.196,353.646 323.071 C 353.646 322.816,354.212 322.103,355.544 320.678 C 356.039 320.149,356.444 319.601,356.444 319.459 C 356.444 319.318,356.953 318.725,357.575 318.142 C 358.198 317.560,358.827 316.600,358.975 316.011 C 359.122 315.421,359.602 314.824,360.041 314.685 C 360.480 314.546,360.839 314.124,360.839 313.748 C 360.839 313.371,361.199 312.804,361.638 312.488 C 362.078 312.171,362.438 311.611,362.438 311.243 C 362.438 310.876,362.707 310.472,363.037 310.345 C 363.367 310.218,363.636 309.789,363.636 309.391 C 363.636 308.994,363.996 308.409,364.436 308.092 C 364.875 307.775,365.235 307.208,365.235 306.832 C 365.235 306.456,365.594 306.034,366.034 305.894 C 366.474 305.755,366.833 305.370,366.833 305.039 C 366.833 304.709,367.103 304.169,367.433 303.839 C 367.762 303.509,368.032 302.893,368.032 302.469 C 368.032 302.045,368.212 301.698,368.432 301.698 C 368.651 301.698,368.831 301.468,368.831 301.187 C 368.831 300.906,369.191 300.417,369.630 300.100 C 370.070 299.783,370.430 299.204,370.430 298.813 C 370.430 298.422,370.609 298.102,370.829 298.102 C 371.049 298.102,371.229 297.832,371.229 297.502 C 371.229 297.173,371.393 296.903,371.593 296.903 C 371.794 296.903,372.078 296.191,372.225 295.321 C 372.404 294.262,372.745 293.659,373.259 293.496 C 373.681 293.362,374.026 292.905,374.026 292.481 C 374.026 292.056,374.206 291.708,374.426 291.708 C 374.645 291.708,374.825 291.349,374.825 290.909 C 374.825 290.470,374.963 290.110,375.131 290.110 C 375.502 290.110,376.823 287.144,376.823 286.311 C 376.823 285.983,377.003 285.714,377.223 285.714 C 377.443 285.714,377.622 285.445,377.622 285.115 C 377.622 284.785,377.802 284.515,378.022 284.515 C 378.242 284.515,378.422 284.156,378.422 283.716 C 378.422 283.277,378.601 282.917,378.821 282.917 C 379.041 282.917,379.221 282.557,379.221 282.118 C 379.221 281.678,379.401 281.319,379.620 281.319 C 379.840 281.319,380.020 280.869,380.020 280.320 C 380.020 279.770,380.184 279.321,380.384 279.321 C 380.585 279.321,380.870 278.601,381.019 277.722 C 381.168 276.843,381.453 276.124,381.654 276.124 C 381.854 276.124,382.018 275.674,382.018 275.125 C 382.018 274.575,382.198 274.126,382.418 274.126 C 382.637 274.126,382.817 273.766,382.817 273.327 C 382.817 272.887,382.997 272.527,383.217 272.527 C 383.437 272.527,383.616 272.078,383.616 271.528 C 383.616 270.979,383.785 270.529,383.991 270.529 C 384.198 270.529,384.488 269.720,384.636 268.731 C 384.785 267.742,385.065 266.933,385.260 266.933 C 385.455 266.933,385.614 266.394,385.614 265.734 C 385.614 265.075,385.794 264.535,386.014 264.535 C 386.234 264.535,386.414 264.086,386.414 263.536 C 386.414 262.987,386.593 262.537,386.813 262.537 C 387.033 262.537,387.213 261.998,387.213 261.339 C 387.213 260.679,387.393 260.140,387.612 260.140 C 387.832 260.140,388.012 259.690,388.012 259.141 C 388.012 258.591,388.177 258.142,388.380 258.142 C 388.582 258.142,388.873 256.973,389.026 255.544 C 389.179 254.116,389.463 252.947,389.657 252.947 C 389.851 252.947,390.010 252.228,390.010 251.349 C 390.010 250.470,390.190 249.750,390.410 249.750 C 390.629 249.750,390.809 249.301,390.809 248.751 C 390.809 248.202,390.989 247.752,391.209 247.752 C 391.429 247.752,391.608 246.943,391.608 245.954 C 391.608 244.965,391.788 244.156,392.008 244.156 C 392.228 244.156,392.408 243.437,392.408 242.557 C 392.408 241.678,392.568 240.959,392.765 240.959 C 392.961 240.959,393.250 239.341,393.407 237.363 C 393.563 235.385,393.852 233.766,394.048 233.766 C 394.245 233.766,394.406 232.597,394.406 231.169 C 394.406 229.704,394.580 228.571,394.805 228.571 C 395.027 228.571,395.205 227.506,395.205 226.174 C 395.205 224.842,395.382 223.776,395.604 223.776 C 395.843 223.776,396.004 222.244,396.004 219.980 C 396.004 217.716,396.165 216.184,396.404 216.184 C 396.664 216.184,396.803 210.190,396.803 199.001 C 396.803 187.812,396.664 181.818,396.404 181.818 C 396.170 181.818,396.004 180.486,396.004 178.621 C 396.004 176.757,395.837 175.425,395.604 175.425 C 395.374 175.425,395.205 174.159,395.205 172.428 C 395.205 170.696,395.036 169.431,394.805 169.431 C 394.585 169.431,394.406 168.442,394.406 167.233 C 394.406 166.024,394.252 165.035,394.065 165.035 C 393.878 165.035,393.604 163.462,393.456 161.538 C 393.309 159.615,393.013 157.982,392.798 157.909 C 392.583 157.835,392.408 156.981,392.408 156.011 C 392.408 155.040,392.228 154.246,392.008 154.246 C 391.788 154.246,391.608 153.526,391.608 152.647 C 391.608 151.768,391.429 151.049,391.209 151.049 C 390.989 151.049,390.809 150.420,390.809 149.650 C 390.809 148.881,390.629 148.252,390.410 148.252 C 390.190 148.252,390.010 147.622,390.010 146.853 C 390.010 146.084,389.851 145.455,389.656 145.455 C 389.462 145.455,389.179 144.466,389.028 143.257 C 388.877 142.048,388.587 141.059,388.383 141.059 C 388.179 141.059,388.012 140.340,388.012 139.461 C 388.012 138.581,387.832 137.862,387.612 137.862 C 387.393 137.862,387.213 137.413,387.213 136.863 C 387.213 136.314,387.033 135.864,386.813 135.864 C 386.593 135.864,386.414 135.325,386.414 134.665 C 386.414 134.006,386.234 133.467,386.014 133.467 C 385.794 133.467,385.614 133.197,385.614 132.867 C 385.614 132.537,385.455 132.268,385.261 132.268 C 385.066 132.268,384.784 131.279,384.633 130.070 C 384.482 128.861,384.191 127.872,383.987 127.872 C 383.783 127.872,383.616 127.512,383.616 127.073 C 383.616 126.633,383.437 126.274,383.217 126.274 C 382.997 126.274,382.817 125.734,382.817 125.075 C 382.817 124.416,382.637 123.876,382.418 123.876 C 382.198 123.876,382.018 123.606,382.018 123.277 C 382.018 122.947,381.849 122.677,381.643 122.677 C 381.437 122.677,381.146 121.868,380.998 120.879 C 380.850 119.890,380.569 119.081,380.374 119.081 C 380.179 119.081,380.020 118.721,380.020 118.282 C 380.020 117.842,379.840 117.483,379.620 117.483 C 379.401 117.483,379.221 117.123,379.221 116.683 C 379.221 116.244,379.041 115.884,378.821 115.884 C 378.601 115.884,378.422 115.614,378.422 115.285 C 378.422 114.955,378.242 114.685,378.022 114.685 C 377.802 114.685,377.622 114.326,377.622 113.886 C 377.622 113.447,377.463 113.087,377.267 113.087 C 377.072 113.087,376.794 112.458,376.650 111.688 C 376.505 110.919,376.216 110.290,376.006 110.290 C 375.796 110.290,375.624 109.930,375.624 109.491 C 375.624 109.051,375.445 108.691,375.225 108.691 C 375.005 108.691,374.825 108.332,374.825 107.892 C 374.825 107.453,374.645 107.093,374.426 107.093 C 374.206 107.093,374.026 106.823,374.026 106.494 C 374.026 106.164,373.846 105.894,373.626 105.894 C 373.407 105.894,373.227 105.534,373.227 105.095 C 373.227 104.655,373.067 104.296,372.872 104.296 C 372.676 104.296,372.406 103.705,372.270 102.984 C 372.135 102.263,371.666 101.414,371.227 101.098 C 370.788 100.781,370.430 100.203,370.430 99.812 C 370.430 99.421,370.250 99.101,370.030 99.101 C 369.810 99.101,369.630 98.897,369.630 98.648 C 369.630 98.399,369.295 97.905,368.885 97.549 C 368.475 97.193,368.009 96.310,367.850 95.585 C 367.691 94.860,367.217 94.053,366.797 93.791 C 366.377 93.529,366.034 93.038,366.034 92.699 C 366.034 92.361,365.674 91.825,365.235 91.508 C 364.795 91.192,364.436 90.632,364.436 90.264 C 364.436 89.897,364.166 89.492,363.836 89.366 C 363.506 89.239,363.237 88.810,363.237 88.412 C 363.237 88.015,362.877 87.430,362.438 87.113 C 361.998 86.796,361.638 86.217,361.638 85.826 C 361.638 85.435,361.486 85.115,361.300 85.115 C 360.620 85.115,359.362 83.688,359.097 82.617 C 358.948 82.013,358.650 81.518,358.434 81.518 C 358.218 81.518,358.042 81.325,358.042 81.088 C 358.042 80.851,357.323 79.966,356.444 79.121 C 355.564 78.276,354.845 77.345,354.845 77.050 C 354.845 76.756,354.220 75.978,353.455 75.321 C 352.691 74.664,352.061 73.897,352.057 73.618 C 352.052 73.338,351.059 72.136,349.850 70.946 C 348.641 69.757,347.652 68.514,347.652 68.185 C 347.652 67.856,347.293 67.472,346.853 67.333 C 346.414 67.193,346.054 66.914,346.054 66.711 C 346.054 66.224,330.538 50.749,330.050 50.749 C 329.841 50.749,328.689 49.760,327.490 48.551 C 326.291 47.343,325.159 46.354,324.976 46.354 C 324.792 46.354,323.975 45.724,323.159 44.955 C 322.344 44.186,321.419 43.556,321.105 43.556 C 320.791 43.556,320.425 43.214,320.292 42.796 C 320.159 42.377,319.383 41.720,318.567 41.335 C 317.751 40.950,316.792 40.304,316.437 39.898 C 316.081 39.493,315.626 39.161,315.426 39.161 C 315.226 39.161,314.802 38.801,314.486 38.362 C 314.169 37.922,313.603 37.562,313.228 37.562 C 312.852 37.562,312.192 37.113,311.760 36.563 C 311.328 36.014,310.751 35.564,310.479 35.564 C 310.207 35.564,309.693 35.235,309.338 34.832 C 308.982 34.429,307.927 33.765,306.993 33.356 C 306.059 32.948,305.295 32.468,305.295 32.291 C 305.295 32.113,304.978 31.968,304.592 31.968 C 304.205 31.968,303.664 31.608,303.389 31.169 C 303.115 30.729,302.622 30.370,302.294 30.370 C 301.967 30.370,301.698 30.190,301.698 29.970 C 301.698 29.750,301.339 29.570,300.899 29.570 C 300.460 29.570,300.100 29.394,300.100 29.178 C 300.100 28.963,299.650 28.674,299.101 28.536 C 298.551 28.398,298.102 28.125,298.102 27.929 C 298.102 27.733,297.742 27.572,297.303 27.572 C 296.863 27.572,296.503 27.393,296.503 27.173 C 296.503 26.953,296.187 26.773,295.800 26.773 C 295.414 26.773,294.873 26.414,294.598 25.974 C 294.324 25.534,293.831 25.175,293.503 25.175 C 293.175 25.175,292.907 25.015,292.907 24.820 C 292.907 24.624,292.278 24.346,291.508 24.202 C 290.739 24.058,290.110 23.768,290.110 23.558 C 290.110 23.348,289.750 23.177,289.311 23.177 C 288.871 23.177,288.511 22.997,288.511 22.777 C 288.511 22.557,288.152 22.378,287.712 22.378 C 287.273 22.378,286.913 22.198,286.913 21.978 C 286.913 21.758,286.643 21.578,286.314 21.578 C 285.984 21.578,285.714 21.399,285.714 21.179 C 285.714 20.959,285.355 20.779,284.915 20.779 C 284.476 20.779,284.116 20.610,284.116 20.404 C 284.116 20.198,283.307 19.908,282.318 19.759 C 281.329 19.611,280.519 19.330,280.519 19.135 C 280.519 18.941,280.160 18.781,279.720 18.781 C 279.281 18.781,278.921 18.601,278.921 18.382 C 278.921 18.162,278.561 17.982,278.122 17.982 C 277.682 17.982,277.323 17.802,277.323 17.582 C 277.323 17.363,276.873 17.183,276.324 17.183 C 275.774 17.183,275.325 17.003,275.325 16.783 C 275.325 16.563,274.965 16.384,274.525 16.384 C 274.086 16.384,273.726 16.224,273.726 16.029 C 273.726 15.835,272.917 15.554,271.928 15.406 C 270.939 15.257,270.130 14.967,270.130 14.761 C 270.130 14.554,269.680 14.386,269.131 14.386 C 268.581 14.386,268.132 14.206,268.132 13.986 C 268.132 13.766,267.592 13.586,266.933 13.586 C 266.274 13.586,265.734 13.407,265.734 13.187 C 265.734 12.967,265.375 12.787,264.935 12.787 C 264.496 12.787,264.136 12.607,264.136 12.388 C 264.136 12.168,263.686 11.988,263.137 11.988 C 262.587 11.988,262.138 11.823,262.138 11.620 C 262.138 11.418,260.969 11.127,259.540 10.974 C 258.112 10.821,256.943 10.537,256.943 10.343 C 256.943 10.149,256.494 9.990,255.944 9.990 C 255.395 9.990,254.945 9.810,254.945 9.590 C 254.945 9.371,254.226 9.191,253.347 9.191 C 252.468 9.191,251.748 9.011,251.748 8.791 C 251.748 8.571,251.119 8.392,250.350 8.392 C 249.580 8.392,248.951 8.212,248.951 7.992 C 248.951 7.772,248.322 7.592,247.552 7.592 C 246.783 7.592,246.154 7.434,246.154 7.240 C 246.154 7.046,244.805 6.761,243.157 6.606 C 241.508 6.452,240.160 6.161,240.160 5.960 C 240.160 5.759,239.171 5.594,237.962 5.594 C 236.753 5.594,235.764 5.415,235.764 5.195 C 235.764 4.975,234.955 4.795,233.966 4.795 C 232.977 4.795,232.168 4.615,232.168 4.396 C 232.168 4.170,231.036 3.996,229.570 3.996 C 228.105 3.996,226.973 3.822,226.973 3.596 C 226.973 3.364,225.652 3.197,223.810 3.197 C 221.893 3.197,220.589 3.026,220.502 2.764 C 220.317 2.209,189.403 1.934,183.417 2.435 M205.487 24.426 C 221.982 26.984,235.377 37.553,240.349 51.931 L 240.838 53.347 253.586 53.574 C 267.596 53.823,268.671 53.977,273.926 56.490 C 279.930 59.360,284.868 64.242,287.722 70.130 C 290.899 76.685,290.966 77.754,290.826 120.080 L 290.709 155.245 289.077 158.242 C 287.560 161.025,287.454 161.424,287.585 163.836 C 287.663 165.265,288.093 172.547,288.541 180.020 C 288.990 187.493,289.530 196.573,289.741 200.200 C 290.145 207.127,290.798 218.160,291.244 225.574 L 291.508 229.970 307.892 230.170 C 323.827 230.364,324.321 230.394,325.924 231.251 C 332.566 234.804,332.607 244.556,325.996 248.461 L 324.875 249.123 324.875 267.091 C 324.875 279.567,324.734 285.494,324.414 286.485 C 323.185 290.294,322.609 291.602,321.169 293.860 C 319.453 296.553,315.384 300.611,313.617 301.393 C 312.996 301.668,312.488 302.029,312.488 302.195 C 312.488 302.362,312.331 302.498,312.139 302.498 C 311.948 302.498,310.843 302.916,309.685 303.427 L 307.580 304.356 309.765 305.589 C 312.292 307.015,315.090 309.967,316.389 312.576 C 318.516 316.851,318.771 327.937,316.820 331.278 C 315.905 332.843,315.754 333.616,315.609 337.463 C 315.347 344.441,312.110 349.587,306.711 351.607 L 304.466 352.448 200.049 352.448 L 95.632 352.448 93.204 351.234 C 88.063 348.665,85.819 344.670,85.580 337.662 C 85.460 334.141,85.262 332.833,84.731 332.068 C 82.236 328.470,82.455 316.786,85.115 311.543 C 86.107 309.588,89.687 305.961,91.392 305.184 C 92.728 304.575,92.558 304.344,90.010 303.310 C 84.184 300.943,78.960 295.685,76.852 290.065 C 76.408 288.881,75.807 287.283,75.517 286.513 C 75.116 285.453,74.949 280.643,74.823 266.636 L 74.657 248.158 73.517 247.346 C 69.242 244.302,69.155 236.284,73.356 232.595 C 75.879 230.380,75.846 230.384,91.708 230.170 L 106.494 229.970 106.767 226.174 C 106.917 224.086,107.234 218.871,107.470 214.585 C 107.707 210.300,108.069 204.186,108.275 200.999 C 108.481 197.812,108.843 191.788,109.080 187.612 C 109.317 183.437,109.684 177.502,109.895 174.426 C 110.751 161.947,110.747 161.226,109.823 160.185 C 109.361 159.666,108.513 158.252,107.938 157.043 L 106.893 154.845 106.893 116.683 C 106.893 81.266,106.944 78.335,107.607 75.933 C 109.928 67.526,115.931 60.164,123.277 56.718 C 129.201 53.940,129.526 53.891,143.785 53.667 C 155.316 53.486,156.722 53.394,156.908 52.806 C 160.685 40.838,171.378 30.378,183.816 26.485 C 191.661 24.030,198.648 23.366,205.487 24.426 M191.214 42.023 C 184.714 43.833,175.824 50.292,175.824 53.204 C 175.824 53.392,186.164 53.546,198.801 53.546 C 211.439 53.546,221.778 53.407,221.778 53.236 C 221.778 52.087,217.536 47.585,214.585 45.601 C 211.568 43.573,210.359 43.060,205.475 41.734 C 202.354 40.886,194.741 41.040,191.214 42.023 M136.009 59.341 C 135.926 59.560,135.904 73.497,135.961 90.310 L 136.064 120.879 139.660 120.879 L 143.257 120.879 143.257 89.959 L 143.257 59.040 139.709 58.990 C 137.665 58.962,136.097 59.110,136.009 59.341 M253.092 59.341 C 253.009 59.560,252.987 73.497,253.044 90.310 L 253.147 120.879 256.743 120.879 L 260.340 120.879 260.340 89.959 L 260.340 59.040 256.792 58.990 C 254.748 58.962,253.180 59.110,253.092 59.341 M135.960 167.517 L 136.064 187.213 139.660 187.213 L 143.257 187.213 143.257 167.632 L 143.257 148.052 139.557 147.937 L 135.857 147.822 135.960 167.517 M253.136 148.336 C 253.028 148.619,252.986 157.483,253.043 168.032 L 253.147 187.213 256.743 187.213 L 260.340 187.213 260.340 167.632 L 260.340 148.052 256.837 147.936 C 254.260 147.851,253.281 147.957,253.136 148.336 M153.604 210.929 C 152.071 211.402,149.935 213.132,148.886 214.749 L 147.852 216.344 147.852 226.054 L 147.852 235.764 163.437 235.764 L 179.021 235.764 179.021 232.552 C 179.021 227.780,180.430 225.507,184.176 224.237 C 186.488 223.452,214.474 223.606,216.435 224.414 C 219.920 225.850,220.979 227.699,220.979 232.348 L 220.979 235.764 235.365 235.764 L 249.750 235.764 249.750 226.361 C 249.750 214.746,249.294 213.255,245.155 211.345 C 243.528 210.594,155.977 210.196,153.604 210.929 M78.077 235.754 C 74.692 237.132,74.765 242.179,78.191 243.611 C 79.630 244.212,105.274 244.437,105.635 243.851 C 105.739 243.684,105.876 241.751,105.940 239.556 L 106.056 235.564 92.489 235.487 C 85.026 235.445,78.541 235.565,78.077 235.754 M292.108 239.128 C 292.108 241.198,292.217 243.176,292.350 243.524 C 292.632 244.257,320.733 244.496,322.613 243.781 C 326.256 242.396,326.256 237.125,322.613 235.740 C 322.063 235.531,315.097 235.365,306.867 235.365 L 292.108 235.365 292.108 239.128 M150.167 244.855 C 150.102 246.558,150.140 254.396,150.250 262.273 L 150.450 276.594 151.571 277.558 L 152.692 278.521 198.662 278.521 C 249.063 278.521,246.218 278.655,247.319 276.239 C 247.925 274.908,247.924 246.553,247.317 246.553 C 247.037 246.553,246.930 245.701,247.017 244.155 L 247.153 241.757 234.278 241.758 C 222.970 241.758,221.432 241.832,221.635 242.361 C 222.352 244.229,219.818 248.675,217.328 249.918 C 215.445 250.857,184.576 250.867,182.696 249.929 C 180.368 248.768,177.837 244.400,178.422 242.556 C 178.672 241.769,178.484 241.758,164.479 241.758 L 150.283 241.758 150.167 244.855 M130.057 322.166 C 129.948 322.452,129.906 328.168,129.964 334.869 L 130.070 347.053 133.666 347.053 L 137.263 347.053 137.263 334.466 L 137.263 321.878 133.760 321.763 C 131.169 321.677,130.205 321.782,130.057 322.166 M260.327 322.166 C 260.218 322.452,260.176 328.168,260.234 334.869 L 260.340 347.053 263.936 347.053 L 267.532 347.053 267.532 334.466 L 267.532 321.878 264.029 321.763 C 261.439 321.677,260.474 321.782,260.327 322.166 " stroke="none" fill="#b4e3e3" fill-rule="evenodd"></path><path id="path3" d="M124.529 126.702 L 123.477 127.531 123.489 134.395 C 123.499 139.468,123.640 141.441,124.033 141.958 C 124.706 142.845,154.489 143.054,155.365 142.178 C 155.900 141.642,156.059 128.012,155.538 127.233 C 154.707 125.988,153.365 125.874,139.541 125.874 C 126.024 125.874,125.549 125.900,124.529 126.702 M241.540 126.855 C 240.418 127.977,240.018 139.433,241.023 141.640 L 241.487 142.657 256.727 142.657 C 268.048 142.657,272.091 142.534,272.448 142.178 C 272.983 141.642,273.142 128.012,272.621 127.233 C 271.790 125.987,270.449 125.874,256.552 125.874 L 242.521 125.874 241.540 126.855 M184.792 229.538 C 183.788 230.272,183.588 243.917,184.564 245.093 C 185.197 245.855,214.203 246.110,215.385 245.364 C 216.467 244.681,216.489 230.875,215.410 229.795 C 214.336 228.722,186.231 228.486,184.792 229.538 M95.998 308.883 C 90.614 310.160,88.312 314.350,88.312 322.873 C 88.312 332.015,87.777 331.779,108.990 331.986 C 123.162 332.124,124.697 332.077,124.921 331.492 C 125.058 331.136,125.042 328.624,124.885 325.910 L 124.600 320.975 122.098 320.358 C 116.272 318.920,110.669 315.339,107.578 311.075 L 105.704 308.492 101.503 308.532 C 99.193 308.555,96.716 308.713,95.998 308.883 M290.852 310.744 C 287.433 315.242,282.531 318.396,276.176 320.186 L 273.006 321.079 272.720 326.207 C 272.538 329.485,272.579 331.480,272.835 331.736 C 273.094 331.995,279.195 332.082,290.164 331.984 C 313.279 331.777,312.887 331.936,312.887 322.768 C 312.887 312.124,309.613 308.856,298.661 308.568 L 292.627 308.409 290.852 310.744 M143.157 321.543 C 142.793 321.690,142.657 323.151,142.657 326.906 L 142.657 332.068 198.801 332.068 L 254.945 332.068 254.945 326.916 C 254.945 322.587,254.844 321.725,254.313 321.521 C 253.557 321.231,143.877 321.253,143.157 321.543 M308.292 336.175 C 307.413 336.379,299.113 336.632,289.848 336.738 L 273.002 336.930 272.720 341.437 C 272.285 348.409,270.451 347.652,287.793 347.652 C 307.586 347.652,309.703 346.831,310.369 338.888 C 310.626 335.818,310.506 335.661,308.292 336.175 M90.718 338.519 C 90.746 346.632,93.271 347.733,111.489 347.571 L 124.875 347.453 125.014 346.254 C 125.090 345.594,125.028 343.226,124.877 340.992 L 124.603 336.928 109.354 336.721 C 100.968 336.606,93.342 336.393,92.408 336.246 L 90.709 335.980 90.718 338.519 M142.657 342.258 L 142.657 347.655 198.701 347.554 L 254.745 347.453 254.745 342.258 L 254.745 337.063 198.701 336.962 L 142.657 336.860 142.657 342.258 " stroke="none" fill="#da7355" fill-rule="evenodd"></path><path id="path4" d="M191.808 24.451 C 179.682 26.493,169.652 32.339,163.019 41.233 C 160.674 44.378,157.924 49.584,156.908 52.806 C 156.722 53.394,155.316 53.486,143.785 53.667 C 129.526 53.891,129.201 53.940,123.277 56.718 C 115.931 60.164,109.928 67.526,107.607 75.933 C 106.944 78.335,106.893 81.266,106.893 116.683 L 106.893 154.845 107.938 157.043 C 108.513 158.252,109.361 159.666,109.823 160.185 C 110.747 161.226,110.751 161.947,109.895 174.426 C 109.684 177.502,109.317 183.437,109.080 187.612 C 108.843 191.788,108.481 197.812,108.275 200.999 C 108.069 204.186,107.707 210.300,107.470 214.585 C 107.234 218.871,106.917 224.086,106.767 226.174 L 106.494 229.970 91.708 230.170 C 75.846 230.384,75.879 230.380,73.356 232.595 C 69.155 236.284,69.242 244.302,73.517 247.346 L 74.657 248.158 74.823 266.636 C 74.949 280.643,75.116 285.453,75.517 286.513 C 75.807 287.283,76.408 288.881,76.852 290.065 C 78.960 295.685,84.184 300.943,90.010 303.310 C 92.558 304.344,92.728 304.575,91.392 305.184 C 89.687 305.961,86.107 309.588,85.115 311.543 C 82.455 316.786,82.236 328.470,84.731 332.068 C 85.262 332.833,85.460 334.141,85.580 337.662 C 85.819 344.670,88.063 348.665,93.204 351.234 L 95.632 352.448 200.049 352.448 L 304.466 352.448 306.711 351.607 C 312.110 349.587,315.347 344.441,315.609 337.463 C 315.754 333.616,315.905 332.843,316.820 331.278 C 318.771 327.937,318.516 316.851,316.389 312.576 C 315.090 309.967,312.292 307.015,309.765 305.589 L 307.580 304.356 309.685 303.427 C 310.843 302.916,311.948 302.498,312.139 302.498 C 312.331 302.498,312.488 302.362,312.488 302.195 C 312.488 302.029,312.996 301.668,313.617 301.393 C 315.384 300.611,319.453 296.553,321.169 293.860 C 322.609 291.602,323.185 290.294,324.414 286.485 C 324.734 285.494,324.875 279.567,324.875 267.091 L 324.875 249.123 325.996 248.461 C 332.607 244.556,332.566 234.804,325.924 231.251 C 324.321 230.394,323.827 230.364,307.892 230.170 L 291.508 229.970 291.244 225.574 C 290.798 218.160,290.145 207.127,289.741 200.200 C 289.530 196.573,288.990 187.493,288.541 180.020 C 288.093 172.547,287.663 165.265,287.585 163.836 C 287.454 161.424,287.560 161.025,289.077 158.242 L 290.709 155.245 290.826 120.080 C 290.966 77.754,290.899 76.685,287.722 70.130 C 284.868 64.242,279.930 59.360,273.926 56.490 C 268.671 53.977,267.596 53.823,253.586 53.574 L 240.838 53.347 240.349 51.931 C 233.879 33.221,212.296 21.002,191.808 24.451 M204.077 24.784 C 219.973 26.777,233.556 36.523,238.904 49.772 C 239.609 51.518,240.334 53.217,240.516 53.546 C 240.795 54.054,242.914 54.178,254.389 54.358 C 267.102 54.557,268.079 54.625,270.330 55.457 C 278.409 58.446,284.354 63.858,287.725 71.293 C 290.167 76.678,290.098 75.351,290.100 116.883 L 290.102 154.845 289.080 157.042 C 288.517 158.250,287.794 159.530,287.471 159.886 C 286.852 160.570,286.827 159.701,288.093 181.618 C 288.613 190.611,290.469 220.865,290.826 226.174 L 291.109 230.370 307.493 230.569 C 318.846 230.708,324.200 230.914,324.931 231.242 C 329.455 233.270,331.739 239.138,329.723 243.556 C 328.958 245.233,326.231 248.152,325.429 248.152 C 324.543 248.152,324.476 249.465,324.476 266.693 C 324.476 286.188,324.359 287.183,321.472 292.345 C 318.762 297.192,310.748 303.696,307.487 303.696 C 306.147 303.696,306.633 304.553,308.513 305.505 C 312.261 307.404,315.212 310.608,316.526 314.201 C 317.777 317.625,317.638 328.684,316.312 331.215 C 315.505 332.754,315.314 333.788,315.180 337.339 C 314.918 344.267,311.770 349.166,306.251 351.230 L 304.050 352.054 199.677 351.951 L 95.305 351.848 93.433 350.892 C 88.356 348.296,85.914 343.541,85.914 336.246 C 85.914 333.856,85.719 332.965,84.815 331.223 C 83.513 328.714,83.017 320.574,83.917 316.489 C 85.000 311.580,88.117 307.298,91.832 305.616 C 93.725 304.759,93.838 304.096,92.166 303.649 C 87.168 302.312,80.716 296.859,78.184 291.833 C 75.573 286.648,75.524 286.179,75.524 266.356 L 75.524 248.511 74.185 247.232 C 68.849 242.138,69.803 234.382,76.131 231.407 C 77.837 230.605,78.526 230.569,92.280 230.569 C 100.181 230.569,106.741 230.417,106.856 230.230 C 106.971 230.043,107.255 226.761,107.487 222.937 C 107.718 219.113,108.088 213.017,108.309 209.391 C 108.529 205.764,108.883 199.740,109.094 196.004 C 109.306 192.268,109.652 186.424,109.864 183.017 C 110.075 179.610,110.456 173.317,110.709 169.031 L 111.170 161.239 109.738 159.111 C 107.362 155.581,107.443 157.210,107.572 115.485 L 107.692 76.923 108.585 74.394 C 111.977 64.781,119.330 57.760,128.732 55.155 C 131.371 54.424,132.829 54.346,143.872 54.346 C 157.371 54.346,157.023 54.410,157.853 51.748 C 162.273 37.579,176.265 27.254,194.605 24.628 C 196.730 24.323,200.960 24.393,204.077 24.784 M195.329 40.776 C 186.840 41.766,178.734 46.618,175.656 52.551 C 174.721 54.353,174.462 54.333,199.113 54.340 C 224.988 54.346,223.568 54.531,221.438 51.434 C 217.028 45.025,205.549 39.535,198.402 40.415 C 198.182 40.443,196.799 40.605,195.329 40.776 M205.475 41.734 C 210.359 43.060,211.568 43.573,214.585 45.601 C 217.536 47.585,221.778 52.087,221.778 53.236 C 221.778 53.407,211.439 53.546,198.801 53.546 C 186.164 53.546,175.824 53.392,175.824 53.204 C 175.824 52.544,178.611 49.222,180.703 47.389 C 186.523 42.290,197.931 39.685,205.475 41.734 M135.964 58.606 C 135.570 58.765,135.465 65.449,135.465 90.143 L 135.465 121.479 139.660 121.479 L 143.856 121.479 143.856 90.153 C 143.856 61.956,143.793 58.803,143.224 58.584 C 142.477 58.297,136.686 58.315,135.964 58.606 M253.047 58.606 C 252.653 58.765,252.547 65.449,252.547 90.143 L 252.547 121.479 256.743 121.479 L 260.939 121.479 260.939 90.153 C 260.939 61.956,260.876 58.803,260.307 58.584 C 259.560 58.297,253.769 58.315,253.047 58.606 M143.257 89.959 L 143.257 120.879 139.660 120.879 L 136.064 120.879 135.961 90.310 C 135.904 73.497,135.926 59.560,136.009 59.341 C 136.097 59.110,137.665 58.962,139.709 58.990 L 143.257 59.040 143.257 89.959 M260.340 89.959 L 260.340 120.879 256.743 120.879 L 253.147 120.879 253.044 90.310 C 252.987 73.497,253.009 59.560,253.092 59.341 C 253.180 59.110,254.748 58.962,256.792 58.990 L 260.340 59.040 260.340 89.959 M135.960 147.385 C 135.564 147.636,135.479 151.960,135.561 167.658 L 135.664 187.612 139.660 187.612 L 143.656 187.612 143.760 167.658 C 143.842 151.960,143.756 147.636,143.360 147.385 C 143.084 147.209,141.419 147.065,139.660 147.065 C 137.902 147.065,136.237 147.209,135.960 147.385 M253.043 147.385 C 252.647 147.636,252.562 151.960,252.644 167.658 L 252.747 187.612 256.743 187.612 L 260.739 187.612 260.843 167.658 C 260.924 151.960,260.839 147.636,260.443 147.385 C 260.167 147.209,258.501 147.065,256.743 147.065 C 254.985 147.065,253.320 147.209,253.043 147.385 M143.257 167.632 L 143.257 187.213 139.660 187.213 L 136.064 187.213 135.960 167.517 L 135.857 147.822 139.557 147.937 L 143.257 148.052 143.257 167.632 M260.340 167.632 L 260.340 187.213 256.743 187.213 L 253.147 187.213 253.043 168.032 C 252.986 157.483,253.028 148.619,253.136 148.336 C 253.281 147.957,254.260 147.851,256.837 147.936 L 260.340 148.052 260.340 167.632 M153.247 210.529 C 150.626 211.381,148.296 213.917,147.501 216.783 C 146.817 219.248,146.900 235.539,147.599 236.120 C 147.991 236.445,152.546 236.543,163.683 236.468 L 179.221 236.364 179.421 232.767 C 179.874 224.606,179.951 224.575,200.000 224.575 C 220.127 224.575,220.170 224.592,220.579 232.496 L 220.779 236.364 235.248 236.469 C 248.739 236.566,249.738 236.526,250.033 235.869 C 250.207 235.482,250.260 230.729,250.150 225.308 L 249.950 215.450 248.751 213.750 C 248.092 212.815,246.760 211.631,245.791 211.120 L 244.030 210.190 199.038 210.230 C 174.292 210.252,153.686 210.386,153.247 210.529 M245.155 211.345 C 249.294 213.255,249.750 214.746,249.750 226.361 L 249.750 235.764 235.365 235.764 L 220.979 235.764 220.979 232.348 C 220.979 227.699,219.920 225.850,216.435 224.414 C 214.474 223.606,186.488 223.452,184.176 224.237 C 180.430 225.507,179.021 227.780,179.021 232.552 L 179.021 235.764 163.437 235.764 L 147.852 235.764 147.852 226.054 L 147.852 216.344 148.886 214.749 C 149.935 213.132,152.071 211.402,153.604 210.929 C 155.977 210.196,243.528 210.594,245.155 211.345 M76.537 236.377 C 74.206 238.708,74.718 242.506,77.562 243.976 C 78.780 244.607,105.660 244.870,106.025 244.256 C 106.123 244.091,106.333 241.933,106.492 239.461 L 106.781 234.965 92.365 234.965 L 77.949 234.965 76.537 236.377 M291.561 235.280 C 291.454 235.453,291.488 237.566,291.637 239.975 L 291.908 244.356 307.393 244.460 L 322.879 244.565 324.336 243.229 C 326.695 241.067,326.364 237.216,323.683 235.632 C 322.465 234.912,291.994 234.578,291.561 235.280 M105.940 239.556 C 105.876 241.751,105.739 243.684,105.635 243.851 C 105.274 244.437,79.630 244.212,78.191 243.611 C 74.765 242.179,74.692 237.132,78.077 235.754 C 78.541 235.565,85.026 235.445,92.489 235.487 L 106.056 235.564 105.940 239.556 M322.613 235.740 C 326.256 237.125,326.256 242.396,322.613 243.781 C 320.733 244.496,292.632 244.257,292.350 243.524 C 292.217 243.176,292.108 241.198,292.108 239.128 L 292.108 235.365 306.867 235.365 C 315.097 235.365,322.063 235.531,322.613 235.740 M149.711 245.212 C 149.295 252.019,149.407 274.152,149.866 275.806 C 150.811 279.207,146.308 278.921,198.849 278.921 L 245.342 278.921 246.647 277.755 L 247.952 276.589 247.952 258.874 L 247.952 241.159 234.592 241.053 C 219.737 240.936,220.596 240.768,220.586 243.796 C 220.578 245.938,218.968 248.524,217.011 249.536 C 215.260 250.442,184.766 250.455,183.018 249.551 C 180.958 248.486,179.644 246.308,179.421 243.589 L 179.221 241.159 164.596 241.054 L 149.972 240.949 149.711 245.212 M178.422 242.556 C 177.837 244.400,180.368 248.768,182.696 249.929 C 184.576 250.867,215.445 250.857,217.328 249.918 C 219.818 248.675,222.352 244.229,221.635 242.361 C 221.432 241.832,222.970 241.758,234.278 241.758 L 247.153 241.757 247.017 244.155 C 246.930 245.701,247.037 246.553,247.317 246.553 C 247.924 246.553,247.925 274.908,247.319 276.239 C 246.218 278.655,249.063 278.521,198.662 278.521 L 152.692 278.521 151.571 277.558 L 150.450 276.594 150.250 262.273 C 150.140 254.396,150.102 246.558,150.167 244.855 L 150.283 241.758 164.479 241.758 C 178.484 241.758,178.672 241.769,178.422 242.556 M129.471 334.466 L 129.471 347.652 133.624 347.652 C 138.754 347.652,138.262 349.053,138.262 334.466 C 138.262 319.878,138.754 321.279,133.624 321.279 L 129.471 321.279 129.471 334.466 M259.734 321.864 C 259.731 322.202,259.728 327.872,259.728 334.466 C 259.728 341.059,259.731 346.730,259.734 347.067 C 259.739 347.586,260.373 347.663,263.836 347.566 L 267.932 347.453 267.932 334.466 L 267.932 321.479 263.836 321.365 C 260.373 321.268,259.739 321.346,259.734 321.864 M137.263 334.466 L 137.263 347.053 133.666 347.053 L 130.070 347.053 129.964 334.869 C 129.837 320.207,129.427 321.620,133.760 321.763 L 137.263 321.878 137.263 334.466 M267.532 334.466 L 267.532 347.053 263.936 347.053 L 260.340 347.053 260.234 334.869 C 260.106 320.207,259.697 321.620,264.029 321.763 L 267.532 321.878 267.532 334.466 " stroke="none" fill="#a9a896" fill-rule="evenodd"></path></g></svg>