<?xml version="1.0" encoding="utf-8"?>
<!DOCTYPE svg PUBLIC "-//W3C//DTD SVG 1.1//EN" "http://www.w3.org/Graphics/SVG/1.1/DTD/svg11.dtd">
<svg version="1.1" id="flask" xmlns="http://www.w3.org/2000/svg" xmlns:xlink="http://www.w3.org/1999/xlink" x="0px" y="0px"
	 width="700px" height="700px" viewBox="0 0 700 700" enable-background="new 0 0 700 700" xml:space="preserve">
	<defs>
		<style type="text/css">
		<![CDATA[
			path#glass { fill: #CBEBFF; fill-opacity: 0.25; }
			path#edge { fill: #5A6B89; }
			circle.bubble { fill: #5A6B89; fill-opacity: 0.25; }
			path#liquid { fill: #5A6B89; fill-opacity: 0.25; }
		]]>
		</style>
	</defs>
	<path id="glass" enable-background="new" d="M398.5,361.836v-79.754c0,0,19.477-2.885,19.785-19.022
		c0.219-11.366-3.921-15.56-8.124-18.56H290.322c-4.252,3-8.536,7.193-8.318,18.56c0.31,16.137,19.496,19.022,19.496,19.022v79.754
		c0,0-63.982,145.678-89.516,203.298c-4.981,11.242,4.374,42.21,31.112,45.896c26.739,3.688,106.977,2.056,106.977,2.056
		s80.323,1.632,107.063-2.056c26.737-3.688,36.145-34.654,31.164-45.896C462.766,507.514,398.5,361.836,398.5,361.836z"/>
	<path id="edge" d="M505.927,557.201c-9.42-21.259-24.625-55.438-39.33-88.487c-21.288-47.847-43.279-97.276-49.268-110.991
		v-62.136c8.585-4.892,19.919-14.641,20.254-32.084c0.462-24.101-12.608-33.405-18.345-36.316l-4.146-2.237H285.925l-4.361,2.156
		c-5.96,2.965-19.772,12.453-19.309,36.45c0.337,17.662,10.98,27.229,19.121,31.974v62.203
		c-10.776,24.759-64.641,147.964-87.466,199.472c-5.248,11.842-3.168,28.781,5.427,44.208c9.073,16.283,23.75,26.588,41.331,29.013
		c12.503,1.726,36.196,2.6,70.42,2.6c20.344,0,37.508-0.322,39.207-0.355c1.693,0.033,18.82,0.355,39.252,0.355
		c34.176,0,57.847-0.874,70.354-2.6c17.525-2.417,32.191-12.747,41.297-29.087C509.416,586.586,511.272,569.261,505.927,557.201z
		 M243.926,605.338c-12.832-1.771-19.711-10.943-22.67-16.254c-5.19-9.314-5.42-18.251-3.927-21.622
		c25.244-56.968,88.971-201.854,89.611-203.313l0.485-1.105v-80.961l-0.025-4.914l-4.85-0.767c-0.592-0.094-14.5-2.419-14.712-13.438
		c-0.122-6.318,1.253-10.578,4.089-12.69h116.605c2.773,2.111,4.118,6.371,3.996,12.69c-0.211,11.014-14.313,13.343-14.889,13.433
		l-4.907,0.724v85.927l0.488,1.108c0.644,1.456,64.575,146.341,89.818,203.306c1.485,3.354,1.246,12.262-3.938,21.563
		c-2.971,5.332-9.877,14.54-22.742,16.313c-11.203,1.544-34.378,2.36-67.02,2.36c-21.236,0-38.953-0.354-39.129-0.358l-0.116-0.002
		l-0.116,0.002c-0.177,0.004-17.874,0.358-39.086,0.358C278.288,607.698,255.131,606.882,243.926,605.338z"/>
	<g id="bubbles-in">
		<circle class="bubble" enable-background="new" cx="336" cy="428" r="25"/>
		<circle class="bubble" enable-background="new" cx="309" cy="485" r="8.5"/>
		<circle class="bubble" enable-background="new" cx="348" cy="525" r="13"/>
		<circle class="bubble" enable-background="new" cx="318" cy="554" r="8.5"/>
		<circle class="bubble" enable-background="new" cx="430" cy="576" r="10.5"/>
		<circle class="bubble" enable-background="new" cx="367" cy="383" r="10.5"/>
		<circle class="bubble" enable-background="new" cx="258" cy="572" r="5.5"/>		
	</g>
	<path id="liquid" enable-background="new" d="M403.507,407.007c-21.874-4.141-38.817,17.733-58.061,28.59
		c-16.802,9.479-42.811,11.509-65.755,10.98c-19.308,43.841-41.927,95.158-54.725,124.037c-0.532,1.908-0.013,9.056,4.455,16.063
		c3.931,6.164,9.247,9.747,15.801,10.65c10.843,1.495,33.616,2.286,65.855,2.286c21.128,0,38.752-0.354,38.928-0.356l0.281-0.005
		l0.279,0.005c0.178,0.003,17.823,0.356,38.972,0.356c32.272,0,55.063-0.791,65.906-2.286c6.57-0.905,11.908-4.5,15.861-10.686
		c4.476-6.996,5.013-14.125,4.487-16.034C458.813,532.287,424.441,454.439,403.507,407.007z"/>
	<g id="bubbles-above">			
		<circle class="bubble" enable-background="new" cx="365" cy="82" r="13"/>
		<circle class="bubble" enable-background="new" cx="327" cy="135" r="26"/>			
		<circle class="bubble" enable-background="new" cx="386" cy="149" r="8.5"/>		
		<circle class="bubble" enable-background="new" cx="365" cy="188" r="16.5"/>	
	</g>	
</svg>